
<svg viewBox="0 0 20 43" version="1.1" xmlns="http://www.w3.org/2000/svg" xmlns:xlink="http://www.w3.org/1999/xlink">
        <path d="M19.2914279,19.1785057 C19.277665,19.1507535 19.2639021,19.1368774 19.2639021,19.1368774 C18.9783208,18.5315234 18.2970638,17.0623865 18.0923159,16.0737408 C17.8875944,15.1249695 17.5332118,14.1917839 16.8794631,13.491051 C16.8657002,13.4771748 16.8519373,13.4771748 16.8381744,13.4632987 C16.6609787,13.2707692 16.5250673,13.0504831 16.4700157,12.804172 C16.29282,12.117293 15.9659632,10.6603227 15.8833858,9.52074924 C15.7887675,8.13313736 14.7651336,7.08894277 13.3217687,6.88255493 C13.3217687,6.88255493 12.1914933,6.07254482 11.4001155,6.00314202 L11.1678682,4.52015125 C11.1678682,4.52015125 11.6443948,3.77776779 11.6857056,3.28342274 C11.6857056,3.28342274 12.2723354,2.88448321 11.6857056,2.14384925 C11.6857056,2.14384925 12.0813901,0.192533924 9.94127445,0 C7.80113241,0.192529483 8.19684333,2.14384925 8.19684333,2.14384925 C7.61021346,2.88623271 8.19684333,3.28342274 8.19684333,3.28342274 C8.23813203,3.77776779 8.71468072,4.52015125 8.71468072,4.52015125 L8.48243342,6.00314202 C7.69277325,6.07252261 6.56078019,6.88255493 6.56078019,6.88255493 C5.11569766,7.08896053 4.09376376,8.13313736 3.99916309,9.52074924 C3.91658569,10.6603227 3.5897157,12.1173374 3.41253322,12.804172 C3.35748162,13.0522059 3.22157463,13.2707648 3.04437453,13.4632987 C3.03061163,13.4771748 3.01684873,13.4771748 3.00308583,13.491051 C2.34933705,14.1917839 1.99493686,15.1267012 1.79023298,16.0737408 C1.58551149,17.0624309 0.904254522,18.5332995 0.618646812,19.1368774 C0.618646812,19.1368774 0.604883911,19.1507535 0.591121011,19.1785057 C0.403602042,19.4265397 -0.657845691,20.9650394 0.622086436,21.2668505 C1.0986131,21.3761233 1.38593842,21.2946027 1.5631165,21.1298255 C1.68526059,21.0205527 1.76783799,20.8696472 1.79536379,20.730886 C1.87794119,20.4568315 1.83665249,20.1949348 1.83665249,20.1949348 C1.86417829,19.9070042 1.93127078,19.6867358 1.98632238,19.5080558 C2.08094067,19.2600218 2.21856968,19.027609 2.38200687,18.8211768 C3.89420831,16.8837154 4.4670973,15.5377541 4.67180118,14.75372 C4.89028557,13.9835843 5.18963857,13.256831 5.50272804,12.5283458 C5.8261584,11.7876941 5.95516412,11.2448159 6.00334528,10.8892321 C6.0188302,10.7764869 6.17537934,10.7574067 6.2115108,10.8666839 C6.88587091,12.9134225 6.59859403,15.8638628 6.38010523,17.3833533 C6.25451712,17.8950158 6.13065101,18.4032592 6.0050673,18.9149216 C4.9934831,21.8514636 5.18959893,26.1531492 5.42015504,28.643746 C5.50273244,29.6046839 5.43391794,30.5673091 5.20167065,31.5143487 C4.71135906,33.4101596 4.88856356,37.670017 4.98318625,39.4412749 C5.01071205,39.9772262 4.88856796,40.4993234 4.64255336,40.9659163 L4.31568338,41.5712703 C3.70324532,42.5322082 4.42406457,42.5322082 4.42406457,42.5322082 L6.03258429,42.5322082 C6.35945428,42.5322082 6.63128147,42.2442776 6.61921416,41.9008336 C6.52459587,39.345896 6.82393565,37.46394 6.97360995,36.7353661 C7.01489865,36.5150843 7.09575404,36.3364265 7.17833144,36.130012 C7.68238391,34.8932835 7.76496131,32.4337692 7.77874623,31.5004948 C7.77874623,31.2940892 7.82003493,31.0876791 7.88712742,30.8830186 C9.91716625,25.0168616 9.82595675,22.0351612 9.82595675,22.0351612 L9.94293921,22.0368929 L10.0616437,22.0368929 C10.0616437,22.0368929 9.97046501,25.0185045 12.000473,30.8847503 C12.0692875,31.0911559 12.1088542,31.297566 12.1088542,31.5022265 C12.1226171,32.4371439 12.2034725,34.8949265 12.709269,36.1317438 C12.7918464,36.3381494 12.8727018,36.5168072 12.9139905,36.7370978 C13.0636604,37.4655829 13.3629913,39.3475416 13.2683863,41.9025681 C13.2546234,42.2460031 13.5264418,42.5339426 13.8550161,42.5339426 L15.4635359,42.5339426 C15.4635359,42.5339426 16.1860771,42.5339426 15.5719171,41.5730047 L15.2450471,40.9676507 C14.9990369,40.5010579 14.8768884,39.9789606 14.9044142,39.4430093 C14.9990325,37.6703278 15.1762326,33.4121133 14.6859298,31.5160804 C14.4536825,30.5673136 14.3865856,29.6063757 14.4674454,28.6454822 C14.6996927,26.1547078 14.8940953,21.8512904 13.8825331,18.9166578 C13.756945,18.4049954 13.6330789,17.896752 13.5074952,17.3850895 C13.2890108,15.8656434 13,12.9154251 13.6760896,10.8684201 C13.7122167,10.7591473 13.8687702,10.7782275 13.8842551,10.8909682 C13.9324275,11.2465432 14.0614508,11.7876985 14.3848724,12.530082 C14.6979795,13.2585671 14.9973105,13.9870523 15.2157992,14.7554562 C15.4205207,15.5377141 15.9916745,16.8854516 17.5055936,18.822913 C17.6690263,19.0293186 17.8049377,19.2617447 17.901278,19.509792 C17.9563296,19.6884453 18.0234221,19.9087315 18.0509479,20.1966709 C18.0784737,20.3614482 18.0922366,20.5262299 18.0922366,20.7326221 C18.1197624,20.8696472 18.2006178,21.0205527 18.3244839,21.1315617 C18.499962,21.2946072 18.7872697,21.3761277 19.2637964,21.2668549 C20.5437241,20.9650482 19.4822808,19.4265486 19.2913222,19.1785102 L19.2914279,19.1785057 Z" fill="#031529"></path>
</svg>