<?xml version="1.0" encoding="UTF-8"?>
<svg width="750px" height="662px" viewBox="0 0 750 662" version="1.1" xmlns="http://www.w3.org/2000/svg" xmlns:xlink="http://www.w3.org/1999/xlink">
   <path d="M167.259605,265.812781 C190.561942,120.127636 277.389648,-6.3841874 468.39856,0.249686331 C659.407471,6.88359397 754.207795,68.3308649 748.904963,219.363317 C743.602118,370.395768 627.76076,614.042612 431.532152,577.941487 C339.165193,560.948291 270.036889,523.074159 225.165812,472.547811 C235.602279,488.666639 242.41121,508.979197 244.17697,534.161931 C249.805938,614.440797 228.210827,656.846398 164.637596,661.27978 C101.064366,665.713157 -6.21689039,627.937878 0.282201298,544.174993 C6.78129299,460.412107 57.4216337,416.417626 119.544929,419.757273 C154.486164,421.635657 187.768609,432.196735 211.206153,455.363209 C171.136625,401.400509 156.13639,335.354614 167.259605,265.812781 Z" id="Path" fill="#FAF4F1"></path>
</svg>