<svg width="80" height="20" viewBox="0 0 80 20" fill="none" xmlns="http://www.w3.org/2000/svg">
<path d="M27.6367 5.46094H25.3008V7.21094H28.0312V8H24.3125V2.3125H28.0039V3.10938H25.3008V4.67969H27.6367V5.46094ZM30.2617 5.16406L31.0664 3.77344H32.1211L30.8281 5.85547L32.1641 8H31.1172L30.2734 6.55469L29.4336 8H28.3789L29.7148 5.85547L28.4258 3.77344H29.4727L30.2617 5.16406ZM34.4258 7.32031C34.6628 7.32031 34.8594 7.2513 35.0156 7.11328C35.1719 6.97526 35.2552 6.80469 35.2656 6.60156H36.1602C36.1497 6.86458 36.0677 7.11068 35.9141 7.33984C35.7604 7.56641 35.5521 7.74609 35.2891 7.87891C35.026 8.01172 34.7422 8.07812 34.4375 8.07812C33.8464 8.07812 33.3776 7.88672 33.0312 7.50391C32.6849 7.12109 32.5117 6.59245 32.5117 5.91797V5.82031C32.5117 5.17708 32.6836 4.66276 33.0273 4.27734C33.3711 3.88932 33.8398 3.69531 34.4336 3.69531C34.9362 3.69531 35.3451 3.84245 35.6602 4.13672C35.9779 4.42839 36.1445 4.8125 36.1602 5.28906H35.2656C35.2552 5.04688 35.1719 4.84766 35.0156 4.69141C34.862 4.53516 34.6654 4.45703 34.4258 4.45703C34.1185 4.45703 33.8815 4.56901 33.7148 4.79297C33.5482 5.01432 33.4635 5.35156 33.4609 5.80469V5.95703C33.4609 6.41536 33.543 6.75781 33.707 6.98438C33.8737 7.20833 34.1133 7.32031 34.4258 7.32031ZM37.8867 8H36.9375V2H37.8867V8ZM41.4844 7.58594C41.2057 7.91406 40.8099 8.07812 40.2969 8.07812C39.8385 8.07812 39.4909 7.94401 39.2539 7.67578C39.0195 7.40755 38.9023 7.01953 38.9023 6.51172V3.77344H39.8516V6.5C39.8516 7.03646 40.0742 7.30469 40.5195 7.30469C40.9805 7.30469 41.2917 7.13932 41.4531 6.80859V3.77344H42.4023V8H41.5078L41.4844 7.58594ZM45.7383 6.85156C45.7383 6.68229 45.668 6.55339 45.5273 6.46484C45.3893 6.3763 45.1589 6.29818 44.8359 6.23047C44.513 6.16276 44.2435 6.07682 44.0273 5.97266C43.5534 5.74349 43.3164 5.41146 43.3164 4.97656C43.3164 4.61198 43.4701 4.30729 43.7773 4.0625C44.0846 3.81771 44.4753 3.69531 44.9492 3.69531C45.4544 3.69531 45.862 3.82031 46.1719 4.07031C46.4844 4.32031 46.6406 4.64453 46.6406 5.04297H45.6914C45.6914 4.86068 45.6237 4.70964 45.4883 4.58984C45.3529 4.46745 45.1732 4.40625 44.9492 4.40625C44.7409 4.40625 44.5703 4.45443 44.4375 4.55078C44.3073 4.64714 44.2422 4.77604 44.2422 4.9375C44.2422 5.08333 44.3034 5.19661 44.4258 5.27734C44.5482 5.35807 44.7956 5.4401 45.168 5.52344C45.5404 5.60417 45.832 5.70182 46.043 5.81641C46.2565 5.92839 46.4141 6.0638 46.5156 6.22266C46.6198 6.38151 46.6719 6.57422 46.6719 6.80078C46.6719 7.18099 46.5143 7.48958 46.1992 7.72656C45.8841 7.96094 45.4714 8.07812 44.9609 8.07812C44.6146 8.07812 44.306 8.01562 44.0352 7.89062C43.7643 7.76562 43.5534 7.59375 43.4023 7.375C43.2513 7.15625 43.1758 6.92057 43.1758 6.66797H44.0977C44.1107 6.89193 44.1953 7.0651 44.3516 7.1875C44.5078 7.30729 44.7148 7.36719 44.9727 7.36719C45.2227 7.36719 45.4128 7.32031 45.543 7.22656C45.6732 7.13021 45.7383 7.00521 45.7383 6.85156ZM48.5117 8H47.5625V3.77344H48.5117V8ZM47.5039 2.67578C47.5039 2.52995 47.5495 2.40885 47.6406 2.3125C47.7344 2.21615 47.8672 2.16797 48.0391 2.16797C48.2109 2.16797 48.3438 2.21615 48.4375 2.3125C48.5312 2.40885 48.5781 2.52995 48.5781 2.67578C48.5781 2.81901 48.5312 2.9388 48.4375 3.03516C48.3438 3.12891 48.2109 3.17578 48.0391 3.17578C47.8672 3.17578 47.7344 3.12891 47.6406 3.03516C47.5495 2.9388 47.5039 2.81901 47.5039 2.67578ZM51.0391 6.79688L51.9336 3.77344H52.9141L51.4492 8H50.625L49.1484 3.77344H50.1328L51.0391 6.79688ZM55.3164 8.07812C54.7148 8.07812 54.2266 7.88932 53.8516 7.51172C53.4792 7.13151 53.293 6.6263 53.293 5.99609V5.87891C53.293 5.45703 53.3737 5.08073 53.5352 4.75C53.6992 4.41667 53.9284 4.15755 54.2227 3.97266C54.5169 3.78776 54.8451 3.69531 55.207 3.69531C55.7826 3.69531 56.2266 3.87891 56.5391 4.24609C56.8542 4.61328 57.0117 5.13281 57.0117 5.80469V6.1875H54.25C54.2786 6.53646 54.3945 6.8125 54.5977 7.01562C54.8034 7.21875 55.0612 7.32031 55.3711 7.32031C55.806 7.32031 56.1602 7.14453 56.4336 6.79297L56.9453 7.28125C56.776 7.53385 56.5495 7.73047 56.2656 7.87109C55.9844 8.00911 55.668 8.07812 55.3164 8.07812ZM55.2031 4.45703C54.9427 4.45703 54.7318 4.54818 54.5703 4.73047C54.4115 4.91276 54.3099 5.16667 54.2656 5.49219H56.0742V5.42188C56.0534 5.10417 55.9688 4.86458 55.8203 4.70312C55.6719 4.53906 55.4661 4.45703 55.2031 4.45703ZM21.1836 14.8867V17H20.1953V11.3125H22.3711C23.0065 11.3125 23.5104 11.4779 23.8828 11.8086C24.2578 12.1393 24.4453 12.5768 24.4453 13.1211C24.4453 13.6784 24.2617 14.112 23.8945 14.4219C23.5299 14.7318 23.0182 14.8867 22.3594 14.8867H21.1836ZM21.1836 14.0938H22.3711C22.7227 14.0938 22.9909 14.0117 23.1758 13.8477C23.3607 13.681 23.4531 13.4414 23.4531 13.1289C23.4531 12.8216 23.3594 12.5768 23.1719 12.3945C22.9844 12.2096 22.7266 12.1146 22.3984 12.1094H21.1836V14.0938ZM27.6992 17C27.6576 16.9193 27.6211 16.7878 27.5898 16.6055C27.2878 16.9206 26.918 17.0781 26.4805 17.0781C26.056 17.0781 25.7096 16.957 25.4414 16.7148C25.1732 16.4727 25.0391 16.1732 25.0391 15.8164C25.0391 15.3659 25.2057 15.0208 25.5391 14.7812C25.875 14.5391 26.3542 14.418 26.9766 14.418H27.5586V14.1406C27.5586 13.9219 27.4974 13.7474 27.375 13.6172C27.2526 13.4844 27.0664 13.418 26.8164 13.418C26.6003 13.418 26.4232 13.4727 26.2852 13.582C26.1471 13.6888 26.0781 13.8255 26.0781 13.9922H25.1289C25.1289 13.7604 25.2057 13.5443 25.3594 13.3438C25.513 13.1406 25.7214 12.9818 25.9844 12.8672C26.25 12.7526 26.5456 12.6953 26.8711 12.6953C27.3659 12.6953 27.7604 12.8203 28.0547 13.0703C28.349 13.3177 28.5 13.6667 28.5078 14.1172V16.0234C28.5078 16.4036 28.5612 16.707 28.668 16.9336V17H27.6992ZM26.6562 16.3164C26.8438 16.3164 27.0195 16.2708 27.1836 16.1797C27.3503 16.0885 27.4753 15.9661 27.5586 15.8125V15.0156H27.0469C26.6953 15.0156 26.431 15.0768 26.2539 15.1992C26.0768 15.3216 25.9883 15.4948 25.9883 15.7188C25.9883 15.901 26.0482 16.0469 26.168 16.1562C26.2904 16.263 26.4531 16.3164 26.6562 16.3164ZM31.7148 13.6406C31.5898 13.6198 31.4609 13.6094 31.3281 13.6094C30.8932 13.6094 30.6003 13.776 30.4492 14.1094V17H29.5V12.7734H30.4062L30.4297 13.2461C30.6589 12.8789 30.9766 12.6953 31.3828 12.6953C31.5182 12.6953 31.6302 12.7135 31.7188 12.75L31.7148 13.6406ZM33.6992 11.7461V12.7734H34.4453V13.4766H33.6992V15.8359C33.6992 15.9974 33.7305 16.1146 33.793 16.1875C33.8581 16.2578 33.9727 16.293 34.1367 16.293C34.2461 16.293 34.3568 16.2799 34.4688 16.2539V16.9883C34.2526 17.0482 34.0443 17.0781 33.8438 17.0781C33.1146 17.0781 32.75 16.6758 32.75 15.8711V13.4766H32.0547V12.7734H32.75V11.7461H33.6992ZM36.0547 12.7734L36.082 13.2617C36.3945 12.8841 36.8047 12.6953 37.3125 12.6953C38.1927 12.6953 38.6406 13.1992 38.6562 14.207V17H37.707V14.2617C37.707 13.9935 37.6484 13.7956 37.5312 13.668C37.4167 13.5378 37.2279 13.4727 36.9648 13.4727C36.582 13.4727 36.2969 13.6458 36.1094 13.9922V17H35.1602V12.7734H36.0547ZM41.4883 17.0781C40.8867 17.0781 40.3984 16.8893 40.0234 16.5117C39.651 16.1315 39.4648 15.6263 39.4648 14.9961V14.8789C39.4648 14.457 39.5456 14.0807 39.707 13.75C39.8711 13.4167 40.1003 13.1576 40.3945 12.9727C40.6888 12.7878 41.0169 12.6953 41.3789 12.6953C41.9544 12.6953 42.3984 12.8789 42.7109 13.2461C43.026 13.6133 43.1836 14.1328 43.1836 14.8047V15.1875H40.4219C40.4505 15.5365 40.5664 15.8125 40.7695 16.0156C40.9753 16.2188 41.2331 16.3203 41.543 16.3203C41.9779 16.3203 42.332 16.1445 42.6055 15.793L43.1172 16.2812C42.9479 16.5339 42.7214 16.7305 42.4375 16.8711C42.1562 17.0091 41.8398 17.0781 41.4883 17.0781ZM41.375 13.457C41.1146 13.457 40.9036 13.5482 40.7422 13.7305C40.5833 13.9128 40.4818 14.1667 40.4375 14.4922H42.2461V14.4219C42.2253 14.1042 42.1406 13.8646 41.9922 13.7031C41.8438 13.5391 41.638 13.457 41.375 13.457ZM46.1367 13.6406C46.0117 13.6198 45.8828 13.6094 45.75 13.6094C45.3151 13.6094 45.0221 13.776 44.8711 14.1094V17H43.9219V12.7734H44.8281L44.8516 13.2461C45.0807 12.8789 45.3984 12.6953 45.8047 12.6953C45.9401 12.6953 46.0521 12.7135 46.1406 12.75L46.1367 13.6406ZM49.1055 15.8516C49.1055 15.6823 49.0352 15.5534 48.8945 15.4648C48.7565 15.3763 48.526 15.2982 48.2031 15.2305C47.8802 15.1628 47.6107 15.0768 47.3945 14.9727C46.9206 14.7435 46.6836 14.4115 46.6836 13.9766C46.6836 13.612 46.8372 13.3073 47.1445 13.0625C47.4518 12.8177 47.8424 12.6953 48.3164 12.6953C48.8216 12.6953 49.2292 12.8203 49.5391 13.0703C49.8516 13.3203 50.0078 13.6445 50.0078 14.043H49.0586C49.0586 13.8607 48.9909 13.7096 48.8555 13.5898C48.7201 13.4674 48.5404 13.4062 48.3164 13.4062C48.1081 13.4062 47.9375 13.4544 47.8047 13.5508C47.6745 13.6471 47.6094 13.776 47.6094 13.9375C47.6094 14.0833 47.6706 14.1966 47.793 14.2773C47.9154 14.3581 48.1628 14.4401 48.5352 14.5234C48.9076 14.6042 49.1992 14.7018 49.4102 14.8164C49.6237 14.9284 49.7812 15.0638 49.8828 15.2227C49.987 15.3815 50.0391 15.5742 50.0391 15.8008C50.0391 16.181 49.8815 16.4896 49.5664 16.7266C49.2513 16.9609 48.8385 17.0781 48.3281 17.0781C47.9818 17.0781 47.6732 17.0156 47.4023 16.8906C47.1315 16.7656 46.9206 16.5938 46.7695 16.375C46.6185 16.1562 46.543 15.9206 46.543 15.668H47.4648C47.4779 15.8919 47.5625 16.0651 47.7188 16.1875C47.875 16.3073 48.082 16.3672 48.3398 16.3672C48.5898 16.3672 48.7799 16.3203 48.9102 16.2266C49.0404 16.1302 49.1055 16.0052 49.1055 15.8516ZM51.8047 13.2344C52.1146 12.875 52.5065 12.6953 52.9805 12.6953C53.8815 12.6953 54.3385 13.2096 54.3516 14.2383V17H53.4023V14.2734C53.4023 13.9818 53.3385 13.776 53.2109 13.6562C53.0859 13.5339 52.901 13.4727 52.6562 13.4727C52.276 13.4727 51.9922 13.6419 51.8047 13.9805V17H50.8555V11H51.8047V13.2344ZM56.3242 17H55.375V12.7734H56.3242V17ZM55.3164 11.6758C55.3164 11.5299 55.362 11.4089 55.4531 11.3125C55.5469 11.2161 55.6797 11.168 55.8516 11.168C56.0234 11.168 56.1562 11.2161 56.25 11.3125C56.3438 11.4089 56.3906 11.5299 56.3906 11.6758C56.3906 11.819 56.3438 11.9388 56.25 12.0352C56.1562 12.1289 56.0234 12.1758 55.8516 12.1758C55.6797 12.1758 55.5469 12.1289 55.4531 12.0352C55.362 11.9388 55.3164 11.819 55.3164 11.6758ZM61.0625 14.9297C61.0625 15.5833 60.9141 16.1055 60.6172 16.4961C60.3203 16.8841 59.9219 17.0781 59.4219 17.0781C58.9583 17.0781 58.5872 16.9258 58.3086 16.6211V18.625H57.3594V12.7734H58.2344L58.2734 13.2031C58.5521 12.8646 58.931 12.6953 59.4102 12.6953C59.9258 12.6953 60.3294 12.888 60.6211 13.2734C60.9154 13.6562 61.0625 14.1888 61.0625 14.8711V14.9297ZM60.1172 14.8477C60.1172 14.4258 60.0326 14.0911 59.8633 13.8438C59.6966 13.5964 59.457 13.4727 59.1445 13.4727C58.7565 13.4727 58.4779 13.6328 58.3086 13.9531V15.8281C58.4805 16.1562 58.7617 16.3203 59.1523 16.3203C59.4544 16.3203 59.6901 16.1992 59.8594 15.957C60.0312 15.7122 60.1172 15.3424 60.1172 14.8477Z" fill="#3C3C3C"/>
</svg>
