<?xml version="1.0" encoding="UTF-8"?>
<svg width="52px" height="53px" viewBox="0 0 52 53" version="1.1" xmlns="http://www.w3.org/2000/svg" xmlns:xlink="http://www.w3.org/1999/xlink">
    <path d="M37.7000944,0.7 C41.4391228,0.7 45.025714,2.18582189 47.669994,4.82999761 C50.222984,7.38288693 51.6961511,10.8145716 51.7947132,14.4136786 L51.8,14.7999055 L51.8,38.2000956 C51.8,41.9391241 50.314178,45.5257152 47.6700023,48.169994 C45.117113,50.722984 41.6854283,52.1961511 38.0863212,52.2947132 L37.7000944,52.3 L14.299904,52.3 C10.5608754,52.3 6.97428417,50.814178 4.33000596,48.1700025 C1.77701609,45.6171142 0.303848903,42.1854296 0.205286826,38.5863224 L0.2,38.2000956 L0.2,14.7999055 C0.2,11.0608775 1.68582203,7.47428622 4.3299975,4.83000604 C6.88288524,2.27701619 10.3145699,0.803848909 13.9136771,0.705286826 L14.299904,0.7 L37.7000944,0.7 Z M36.2941991,4.7 L16.1057995,4.7 L15.7796655,4.70446438 C12.7405447,4.78769362 9.84289213,6.0316839 7.6873311,8.18733115 C5.53176921,10.3429784 4.2876995,13.2404698 4.20446469,16.2796586 L4.2,16.6058008 L4.2,36.7942001 L4.20446438,37.1203341 C4.28769362,40.1594549 5.53168382,43.0571074 7.6873311,45.2126689 C9.8429771,47.3682312 12.7404685,48.6123005 15.7796573,48.6955353 L16.1057995,48.7 L36.2941991,48.7 L36.6203331,48.6955356 C39.6594539,48.6123064 42.5571065,47.3683161 44.7126688,45.2126689 C46.8682311,43.0570225 48.1123005,40.1595311 48.1955353,37.1203423 L48.2,36.7942001 L48.2,16.6058008 L48.1955356,16.2796668 C48.1123064,13.240546 46.8683161,10.3428934 44.7126688,8.18733115 C42.5570215,6.03176886 39.6595301,4.78769948 36.6203413,4.70446469 L36.2941991,4.7 Z M19.5,18.7296196 C19.5,16.2972681 21.2674288,15.3212255 23.4584582,16.4971546 L23.6322898,16.5944746 L34.7970392,23.0913043 C37.0062856,24.3792039 37.065995,26.4657627 34.9761673,27.7967747 L34.7970392,27.9059101 L23.6322898,34.4055266 C21.4198963,35.6951991 19.5957394,34.814587 19.5036475,32.4593707 L19.5,32.2703817 L19.5,18.7296196 Z" id="Shape" fill="#848CC6" fill-rule="nonzero"></path>
</svg>