<svg viewBox="0 0 100 100" xmlns="http://www.w3.org/2000/svg"><path d="M50,80.5 C55.3828,80.5 59.75,84.8633 59.75,90.2539 C59.75,95.6367 55.3828,100 50,100 C44.6133,100 40.25,95.6367 40.25,90.2539 C40.25,84.8633 44.6133,80.5 50,80.5 Z M71.566,71.57 C75.3706,67.7614 81.5464,67.7614 85.355,71.57 C89.1597,75.3746 89.1597,81.5504 85.355,85.359 C81.5465,89.1676 75.3707,89.1676 71.566,85.359 C67.7613,81.5505 67.7613,75.3708 71.566,71.57 Z M14.648,71.57 C18.4565,67.7614 24.6245,67.7614 28.437,71.57 C32.2456,75.3746 32.2455,81.5504 28.437,85.359 C24.6285,89.1676 18.4566,89.1676 14.648,85.359 C10.8394,81.5505 10.8394,75.3708 14.648,71.57 Z M9.754,40.2539 C15.1368,40.2539 19.5039997,44.6172 19.5039997,50 C19.5039997,55.3828 15.1368,59.7539 9.754,59.7539 C4.3712,59.7539 0.00399970996,55.3828 0.00399970996,50 C0.00399970996,44.6172 4.3712,40.2539 9.754,40.2539 Z M90.246,40.254 C95.6327,40.254 99.996,44.6173 99.996,50.0001 C99.996,55.3829 95.6327,59.754 90.246,59.754 C84.8593,59.754 80.496,55.3829 80.496,50.0001 C80.496,44.6173 84.8593,40.254 90.246,40.254 Z M14.645,14.64509 C18.4535,10.8404 24.6254,10.8404 28.434,14.649 C32.2426,18.4575 32.2426,24.6294 28.434,28.438 C24.6255,32.24269 18.4575,32.24269 14.645,28.43409 C10.8364,24.62559 10.8364,18.45369 14.645,14.64509 Z M71.566,14.649 C75.3706,10.8404 81.5464,10.8404 85.355,14.649 C89.1597,18.4575 89.1597,24.6294 85.355,28.438 C81.5465,32.2427 75.3707,32.2427 71.566,28.438 C67.7574,24.6295 67.7574,18.4537 71.566,14.649 Z M50,0 C55.3828,0 59.75,4.3672 59.75,9.7539 C59.75,15.1367 55.3828,19.5 50,19.5 C44.6133,19.5 40.25,15.1367 40.25,9.7539 C40.25,4.3672 44.6133,0 50,0 Z" fill="#2A3165"></path></svg>