<svg viewBox="0 0 28 24" version="1.1" xmlns="http://www.w3.org/2000/svg" xmlns:xlink="http://www.w3.org/1999/xlink">
    <path d="M27.4067724,18.3017633 C27.3273288,17.404115 27.0923027,16.5276746 26.7127526,15.7126285 C26.3343042,14.8518225 25.7870257,14.0780775 25.1051237,13.4383537 C25.1316049,13.3490348 25.1525695,13.2574835 25.1669132,13.1659323 C25.4118652,10.9084066 22.549693,6.04614026 22.4172728,5.81834121 C19.2228609,1.07314698 13.7435788,3.07400577 13.2416361,3.27162216 L13.2416361,3.2705046 C12.8146317,3.40001565 12.3677417,3.44244287 11.9241848,3.39666869 C12.3732498,2.93889836 12.7837299,2.35388068 12.5431815,1.82465519 C12.3026445,1.29542969 11.3923572,1.18601755 10.8274245,1.21059813 C10.6111598,0.525085912 10.2624918,0.126480451 9.78032173,0.0248997966 C8.88767159,-0.168252074 7.96524949,0.81090655 7.56584208,1.28542597 C4.6827081,0.801988946 0.438085779,3.38666497 0.250527561,3.49607711 L0.252734471,3.49830937 C0.206393042,3.53068713 0.165568182,3.56976453 0.131361507,3.61554156 C0,3.79864398 -0.0352484414,4.03535491 0.0364697635,4.25083795 C0.203079712,4.79681253 1.09571856,5.32712414 1.92656506,5.71343646 C1.72133631,5.80945504 1.5867298,6.01377678 1.57788861,6.24266481 C1.57788861,6.51173922 1.57788861,7.08337763 4.69716473,7.65947485 C5.37796511,7.71529848 5.97377137,8.14514128 6.25072963,8.77709071 L6.25072963,8.81505055 C6.83662132,10.1816162 8.41114522,11.6475931 8.94297285,12.1188513 L8.71346894,14.0403406 C8.56782365,14.3518279 7.99515703,14.4601539 7.75020222,14.4947382 L7.75020222,14.4936206 C7.19631396,14.5717754 6.78363063,15.0496275 6.78252901,15.6156953 C6.78252901,15.7362773 6.83438701,15.8512744 6.92376218,15.93167 C6.92376218,15.93167 8.29858238,17.120741 10.1588492,15.8300694 C10.138989,15.9361345 10.1147139,16.0544843 10.0838205,16.1828863 L10.0584437,16.2878368 L10.0595454,16.2889515 C10.0010664,16.5222984 9.81790388,16.7020481 9.58618826,16.7556395 C9.07862449,16.9141813 8.63066111,17.2234421 8.29853718,17.6421408 C8.20916201,17.7638375 8.1926123,17.9246116 8.25219575,18.0619541 C8.32060628,18.2070967 8.46404551,18.2997655 8.62293283,18.3019977 C9.61156504,18.3019977 11.3063631,18.3276787 11.5303589,18.3019977 C11.8172317,18.2562207 11.9750174,18.2305426 13.3167326,14.1698888 C13.8231947,14.1274615 15.6349339,15.0106016 17.5582472,16.1918411 L17.5571456,16.1918411 C17.0175784,16.355965 16.4592836,16.4519836 15.8965542,16.4776617 L15.8546249,16.4776617 C14.4047816,16.7177054 14.1476808,17.8397686 14.2138909,18.4024922 C14.2392677,18.6146255 14.418018,18.7742877 14.6287774,18.773173 L19.3479427,18.5498757 C19.872059,18.52308 20.3266321,18.1747361 20.4943606,17.6712059 L20.8264845,16.6831239 L20.8264845,16.6842415 C20.9279973,16.3827864 21.1883804,16.1639622 21.4995453,16.1204031 C23.3642751,15.9317157 24.2911037,15.0195363 24.7433888,14.2581102 C25.2454162,14.7806189 25.6514616,15.3879877 25.9438708,16.0534067 C26.2848076,16.7780192 26.4988606,17.5573092 26.5761152,18.3567209 C26.6555588,19.1103442 26.4392941,19.8650822 25.973671,20.4579599 C25.5587844,20.9704363 24.8482121,21.2986728 23.8011093,21.517497 C22.9647547,21.6994847 22.1030064,21.736327 21.2545057,21.626912 C20.545035,21.491816 19.8498854,21.2908441 19.1779262,21.0262314 C18.9120095,20.9335626 18.6460985,20.837544 18.3757782,20.7493426 L18.3757782,20.7482251 C17.3374885,20.3496482 16.2131594,20.2402361 15.1197887,20.4289063 C13.9049574,20.6589033 12.9593731,21.630239 12.7519298,22.8628405 C12.7397922,22.973373 12.7728945,23.0850203 12.841305,23.1709851 C12.9108171,23.2580718 13.0112254,23.3127779 13.1215653,23.3250653 L13.1668051,23.3250653 C13.3808609,23.326176 13.5607044,23.1620532 13.5827933,22.9465745 C13.6743745,22.0679047 14.5217679,21.4248083 15.3106964,21.2651488 C16.2596138,21.1144242 17.2305919,21.2182571 18.1265469,21.5677186 C18.3880486,21.6514554 18.6462285,21.7441242 18.9077358,21.836793 C19.6337591,22.1192638 20.385176,22.3325203 21.150914,22.4720865 C22.0931935,22.5982506 23.0498505,22.5614055 23.9800969,22.3626715 C25.22583,22.1103462 26.0566765,21.6860769 26.6182761,21.0262314 L26.6171717,21.0262314 C27.2284571,20.2603207 27.512025,19.2800416 27.4072018,18.3020177 L27.4067724,18.3017633 Z" fill="#031529"></path>
</svg>