<?xml version="1.0" encoding="UTF-8"?>
<svg width="21px" height="20px" viewBox="0 0 21 20" version="1.1" xmlns="http://www.w3.org/2000/svg" xmlns:xlink="http://www.w3.org/1999/xlink">
    <title>Shape</title>
    <g id="Page-1" stroke="none" stroke-width="1" fill="none" fill-rule="evenodd">
        <g id="Search-Results-Null---UI" transform="translate(-148.000000, -355.000000)" fill="#F9865D" fill-rule="nonzero">
            <path d="M158.5,355 C164.014,355 168.5,359.486 168.5,365 C168.5,370.5148 164.014,375 158.5,375 C152.986,375 148.5,370.514 148.5,365 C148.5,359.486 152.986,355 158.5,355 Z M158.5,356.6672 C153.9054,356.6672 150.1664,360.4054 150.1664,365.0008 C150.1664,369.5954 153.9046,373.3344 158.5,373.3344 C163.0946,373.3344 166.8336,369.5962 166.8336,365.0008 C166.8336,360.4054 163.0946,356.6672 158.5,356.6672 Z M159.3218,368.6008 C159.3218,369.91018 157.35696,369.91018 157.35696,368.6008 C157.35696,367.29142 159.3218,367.29142 159.3218,368.6008 Z M158.339,359.5828 C158.79994,359.5828 159.1726,359.95546 159.1726,360.4164 L159.171819,365 C159.171819,365.46094 158.799159,365.8336 158.338999,365.8336 C157.87806,365.8336 157.5054,365.46094 157.5054,365 L157.5054,360.4164 C157.5054,359.95546 157.87806,359.5828 158.339,359.5828 Z" id="Shape"></path>
        </g>
    </g>
</svg>