<svg width="80" height="20" viewBox="0 0 80 20" fill="none" xmlns="http://www.w3.org/2000/svg">
<rect width="80" height="20" fill="#ECECEC"/>
<rect width="80" height="20" fill="#F2F2F2"/>
<path d="M0 0H59C64.5228 0 69 4.47715 69 10V10C69 15.5228 64.5228 20 59 20H0V0Z" fill="#73814C" fill-opacity="0.7"/>
<path d="M7.23193 6.51025H4.75342L4.23486 8H3.0791L5.49609 1.60156H6.49365L8.91504 8H7.75488L7.23193 6.51025ZM5.06543 5.61377H6.91992L5.99268 2.95947L5.06543 5.61377ZM9.82129 3.24512L9.85205 3.79443C10.2036 3.36963 10.665 3.15723 11.2363 3.15723C12.2266 3.15723 12.7305 3.72412 12.748 4.85791V8H11.6802V4.91943C11.6802 4.61768 11.6143 4.39502 11.4824 4.25146C11.3535 4.10498 11.1411 4.03174 10.8452 4.03174C10.4146 4.03174 10.0938 4.22656 9.88281 4.61621V8H8.81494V3.24512H9.82129ZM14.6782 2.08936V3.24512H15.5176V4.03613H14.6782V6.69043C14.6782 6.87207 14.7134 7.00391 14.7837 7.08594C14.8569 7.16504 14.9858 7.20459 15.1704 7.20459C15.2935 7.20459 15.418 7.18994 15.5439 7.16064V7.98682C15.3008 8.0542 15.0664 8.08789 14.8408 8.08789C14.0205 8.08789 13.6104 7.63525 13.6104 6.72998V4.03613H12.8281V3.24512H13.6104V2.08936H14.6782ZM16.9731 8H15.9053V3.24512H16.9731V8ZM15.8394 2.01025C15.8394 1.84619 15.8906 1.70996 15.9932 1.60156C16.0986 1.49316 16.248 1.43896 16.4414 1.43896C16.6348 1.43896 16.7842 1.49316 16.8896 1.60156C16.9951 1.70996 17.0479 1.84619 17.0479 2.01025C17.0479 2.17139 16.9951 2.30615 16.8896 2.41455C16.7842 2.52002 16.6348 2.57275 16.4414 2.57275C16.248 2.57275 16.0986 2.52002 15.9932 2.41455C15.8906 2.30615 15.8394 2.17139 15.8394 2.01025ZM21.8125 5.6709C21.8125 6.40918 21.647 6.99658 21.3159 7.43311C20.9878 7.86963 20.5352 8.08789 19.958 8.08789C19.4014 8.08789 18.9678 7.88721 18.6572 7.48584L18.6045 8H17.6377V1.25H18.7056V3.70215C19.0132 3.33887 19.4277 3.15723 19.9492 3.15723C20.5293 3.15723 20.9849 3.37256 21.3159 3.80322C21.647 4.23389 21.8125 4.83594 21.8125 5.60938V5.6709ZM20.7446 5.57861C20.7446 5.06299 20.6538 4.67627 20.4722 4.41846C20.2905 4.16064 20.0269 4.03174 19.6812 4.03174C19.2183 4.03174 18.8931 4.23389 18.7056 4.63818V6.59814C18.896 7.01123 19.2241 7.21777 19.6899 7.21777C20.0239 7.21777 20.2817 7.09326 20.4634 6.84424C20.645 6.59521 20.7388 6.21875 20.7446 5.71484V5.57861ZM22.0112 5.57861C22.0112 5.11279 22.1035 4.69385 22.2881 4.32178C22.4727 3.94678 22.7319 3.65967 23.0659 3.46045C23.3999 3.2583 23.7837 3.15723 24.2173 3.15723C24.8589 3.15723 25.3789 3.36377 25.7773 3.77686C26.1787 4.18994 26.3955 4.73779 26.4277 5.42041L26.4321 5.6709C26.4321 6.13965 26.3413 6.55859 26.1597 6.92773C25.981 7.29688 25.7231 7.58252 25.3862 7.78467C25.0522 7.98682 24.6655 8.08789 24.2261 8.08789C23.5552 8.08789 23.0176 7.86523 22.6133 7.41992C22.2119 6.97168 22.0112 6.37549 22.0112 5.63135V5.57861ZM23.0791 5.6709C23.0791 6.16016 23.1802 6.54395 23.3823 6.82227C23.5845 7.09766 23.8657 7.23535 24.2261 7.23535C24.5864 7.23535 24.8662 7.09473 25.0654 6.81348C25.2676 6.53223 25.3687 6.12061 25.3687 5.57861C25.3687 5.09814 25.2646 4.71729 25.0566 4.43604C24.8516 4.15479 24.5718 4.01416 24.2173 4.01416C23.8687 4.01416 23.5918 4.15332 23.3867 4.43164C23.1816 4.70703 23.0791 5.12012 23.0791 5.6709ZM26.6353 5.5874C26.6353 4.85498 26.8052 4.26758 27.145 3.8252C27.4849 3.37988 27.9404 3.15723 28.5117 3.15723C29.0156 3.15723 29.4229 3.33301 29.7334 3.68457V1.25H30.8013V8H29.8345L29.7817 7.50781C29.4624 7.89453 29.0361 8.08789 28.5029 8.08789C27.9463 8.08789 27.4951 7.86377 27.1494 7.41553C26.8066 6.96729 26.6353 6.35791 26.6353 5.5874ZM27.7031 5.67969C27.7031 6.16309 27.7954 6.54102 27.98 6.81348C28.1675 7.08301 28.4326 7.21777 28.7754 7.21777C29.2119 7.21777 29.5312 7.02295 29.7334 6.6333V4.60303C29.5371 4.22217 29.2207 4.03174 28.7842 4.03174C28.4385 4.03174 28.1719 4.16943 27.9844 4.44482C27.7969 4.71729 27.7031 5.12891 27.7031 5.67969ZM33.0786 6.4707L34.0454 3.24512H35.1836L33.2939 8.7207C33.0039 9.52051 32.5117 9.92041 31.8174 9.92041C31.6621 9.92041 31.4907 9.89404 31.3032 9.84131V9.01514L31.5054 9.02832C31.7749 9.02832 31.9771 8.97852 32.1118 8.87891C32.2495 8.78223 32.3579 8.61816 32.437 8.38672L32.5908 7.97803L30.9209 3.24512H32.0723L33.0786 6.4707ZM3.65039 17V10.6016H5.54004C6.10547 10.6016 6.60645 10.7275 7.04297 10.9795C7.48242 11.2314 7.82227 11.5889 8.0625 12.0518C8.30273 12.5146 8.42285 13.0449 8.42285 13.6426V13.9634C8.42285 14.5698 8.30127 15.103 8.05811 15.563C7.81787 16.0229 7.47363 16.3774 7.02539 16.6265C6.58008 16.8755 6.06885 17 5.4917 17H3.65039ZM4.76221 11.498V16.1123H5.4873C6.07031 16.1123 6.51709 15.9307 6.82764 15.5674C7.14111 15.2012 7.30078 14.6768 7.30664 13.9941V13.6382C7.30664 12.9438 7.15576 12.4136 6.854 12.0474C6.55225 11.6812 6.11426 11.498 5.54004 11.498H4.76221ZM10.063 17H8.99512V12.2451H10.063V17ZM8.9292 11.0103C8.9292 10.8462 8.98047 10.71 9.08301 10.6016C9.18848 10.4932 9.33789 10.439 9.53125 10.439C9.72461 10.439 9.87402 10.4932 9.97949 10.6016C10.085 10.71 10.1377 10.8462 10.1377 11.0103C10.1377 11.1714 10.085 11.3062 9.97949 11.4146C9.87402 11.52 9.72461 11.5728 9.53125 11.5728C9.33789 11.5728 9.18848 11.52 9.08301 11.4146C8.98047 11.3062 8.9292 11.1714 8.9292 11.0103ZM13.395 15.708C13.395 15.5176 13.3159 15.3726 13.1577 15.2729C13.0024 15.1733 12.7432 15.0854 12.3799 15.0093C12.0166 14.9331 11.7134 14.8364 11.4702 14.7192C10.937 14.4614 10.6704 14.0879 10.6704 13.5986C10.6704 13.1885 10.8433 12.8457 11.189 12.5703C11.5347 12.2949 11.9741 12.1572 12.5073 12.1572C13.0757 12.1572 13.5342 12.2979 13.8828 12.5791C14.2344 12.8604 14.4102 13.2251 14.4102 13.6733H13.3423C13.3423 13.4683 13.2661 13.2983 13.1138 13.1636C12.9614 13.0259 12.7593 12.957 12.5073 12.957C12.2729 12.957 12.0811 13.0112 11.9316 13.1196C11.7852 13.228 11.7119 13.373 11.7119 13.5547C11.7119 13.7188 11.7808 13.8462 11.9185 13.937C12.0562 14.0278 12.3345 14.1201 12.7534 14.2139C13.1724 14.3047 13.5005 14.4146 13.7378 14.5435C13.978 14.6694 14.1553 14.8218 14.2695 15.0005C14.3867 15.1792 14.4453 15.396 14.4453 15.6509C14.4453 16.0786 14.2681 16.4258 13.9136 16.6924C13.5591 16.9561 13.0947 17.0879 12.5205 17.0879C12.1309 17.0879 11.7837 17.0176 11.479 16.877C11.1743 16.7363 10.937 16.543 10.7671 16.2969C10.5972 16.0508 10.5122 15.7856 10.5122 15.5015H11.5493C11.564 15.7534 11.6592 15.9482 11.835 16.0859C12.0107 16.2207 12.2437 16.2881 12.5337 16.2881C12.8149 16.2881 13.0288 16.2354 13.1753 16.1299C13.3218 16.0215 13.395 15.8809 13.395 15.708ZM16.8325 16.2354C17.0991 16.2354 17.3203 16.1577 17.4961 16.0024C17.6719 15.8472 17.7656 15.6553 17.7773 15.4268H18.7837C18.772 15.7227 18.6797 15.9995 18.5068 16.2573C18.334 16.5122 18.0996 16.7144 17.8037 16.8638C17.5078 17.0132 17.1885 17.0879 16.8457 17.0879C16.1807 17.0879 15.6533 16.8726 15.2637 16.4419C14.874 16.0112 14.6792 15.4165 14.6792 14.6577V14.5479C14.6792 13.8242 14.8726 13.2456 15.2593 12.812C15.646 12.3755 16.1733 12.1572 16.8413 12.1572C17.4067 12.1572 17.8667 12.3228 18.2212 12.6538C18.5786 12.9819 18.7661 13.4141 18.7837 13.9502H17.7773C17.7656 13.6777 17.6719 13.4536 17.4961 13.2778C17.3232 13.1021 17.1021 13.0142 16.8325 13.0142C16.4868 13.0142 16.2202 13.1401 16.0327 13.3921C15.8452 13.6411 15.75 14.0205 15.7471 14.5303V14.7017C15.7471 15.2173 15.8394 15.6025 16.0239 15.8574C16.2114 16.1094 16.481 16.2354 16.8325 16.2354ZM18.8901 14.5786C18.8901 14.1128 18.9824 13.6938 19.167 13.3218C19.3516 12.9468 19.6108 12.6597 19.9448 12.4604C20.2788 12.2583 20.6626 12.1572 21.0962 12.1572C21.7378 12.1572 22.2578 12.3638 22.6562 12.7769C23.0576 13.1899 23.2744 13.7378 23.3066 14.4204L23.311 14.6709C23.311 15.1396 23.2202 15.5586 23.0386 15.9277C22.8599 16.2969 22.6021 16.5825 22.2651 16.7847C21.9312 16.9868 21.5444 17.0879 21.105 17.0879C20.4341 17.0879 19.8965 16.8652 19.4922 16.4199C19.0908 15.9717 18.8901 15.3755 18.8901 14.6313V14.5786ZM19.958 14.6709C19.958 15.1602 20.0591 15.5439 20.2612 15.8223C20.4634 16.0977 20.7446 16.2354 21.105 16.2354C21.4653 16.2354 21.7451 16.0947 21.9443 15.8135C22.1465 15.5322 22.2476 15.1206 22.2476 14.5786C22.2476 14.0981 22.1436 13.7173 21.9355 13.436C21.7305 13.1548 21.4507 13.0142 21.0962 13.0142C20.7476 13.0142 20.4707 13.1533 20.2656 13.4316C20.0605 13.707 19.958 14.1201 19.958 14.6709ZM25.3203 15.6465L26.3267 12.2451H27.4297L25.7817 17H24.8545L23.1934 12.2451H24.3008L25.3203 15.6465ZM29.6323 17.0879C28.9556 17.0879 28.4062 16.8755 27.9844 16.4507C27.5654 16.0229 27.356 15.4546 27.356 14.7456V14.6138C27.356 14.1392 27.4468 13.7158 27.6284 13.3438C27.813 12.9688 28.0708 12.6772 28.4019 12.4692C28.7329 12.2612 29.1021 12.1572 29.5093 12.1572C30.1567 12.1572 30.6562 12.3638 31.0078 12.7769C31.3623 13.1899 31.5396 13.7744 31.5396 14.5303V14.9609H28.4326C28.4648 15.3535 28.5952 15.6641 28.8237 15.8926C29.0552 16.1211 29.3452 16.2354 29.6938 16.2354C30.1831 16.2354 30.5815 16.0376 30.8892 15.6421L31.4648 16.1914C31.2744 16.4756 31.0195 16.6968 30.7002 16.855C30.3838 17.0103 30.0278 17.0879 29.6323 17.0879ZM29.5049 13.0142C29.2119 13.0142 28.9746 13.1167 28.793 13.3218C28.6143 13.5269 28.5 13.8125 28.4502 14.1787H30.4849V14.0996C30.4614 13.7422 30.3662 13.4727 30.1992 13.291C30.0322 13.1064 29.8008 13.0142 29.5049 13.0142ZM34.3618 13.2207C34.2212 13.1973 34.0762 13.1855 33.9268 13.1855C33.4375 13.1855 33.1079 13.373 32.938 13.748V17H31.8701V12.2451H32.8896L32.916 12.7769C33.1738 12.3638 33.5312 12.1572 33.9883 12.1572C34.1406 12.1572 34.2666 12.1777 34.3662 12.2188L34.3618 13.2207ZM36.2788 15.4707L37.2456 12.2451H38.3838L36.4941 17.7207C36.2041 18.5205 35.7119 18.9204 35.0176 18.9204C34.8623 18.9204 34.6909 18.894 34.5034 18.8413V18.0151L34.7056 18.0283C34.9751 18.0283 35.1772 17.9785 35.312 17.8789C35.4497 17.7822 35.5581 17.6182 35.6372 17.3867L35.791 16.978L34.1211 12.2451H35.2725L36.2788 15.4707Z" fill="white"/>
</svg>
