<svg width="80" height="20" viewBox="0 0 80 20" fill="none" xmlns="http://www.w3.org/2000/svg">
<rect width="80" height="20" fill="#ECECEC"/>
<rect width="80" height="20" fill="#F2F2F2"/>
<path d="M0 0H54C59.5228 0 64 4.47715 64 10V10C64 15.5228 59.5228 20 54 20H0V0Z" fill="#73814C" fill-opacity="0.6"/>
<path d="M4.82373 15H3.71631V8.60156H4.82373V15ZM6.59131 10.2451L6.62207 10.7417C6.95605 10.3521 7.41309 10.1572 7.99316 10.1572C8.62891 10.1572 9.06396 10.4004 9.29834 10.8867C9.64404 10.4004 10.1304 10.1572 10.7573 10.1572C11.2817 10.1572 11.6714 10.3022 11.9263 10.5923C12.1841 10.8823 12.3159 11.3101 12.3218 11.8755V15H11.2539V11.9062C11.2539 11.6045 11.188 11.3833 11.0562 11.2427C10.9243 11.1021 10.7061 11.0317 10.4014 11.0317C10.1582 11.0317 9.95898 11.0977 9.80371 11.2295C9.65137 11.3584 9.54443 11.5283 9.48291 11.7393L9.4873 15H8.41943V11.8711C8.40479 11.3115 8.11914 11.0317 7.5625 11.0317C7.13477 11.0317 6.83154 11.2061 6.65283 11.5547V15H5.58496V10.2451H6.59131ZM13.9224 10.2451L13.9531 10.7417C14.2871 10.3521 14.7441 10.1572 15.3242 10.1572C15.96 10.1572 16.395 10.4004 16.6294 10.8867C16.9751 10.4004 17.4614 10.1572 18.0884 10.1572C18.6128 10.1572 19.0024 10.3022 19.2573 10.5923C19.5151 10.8823 19.647 11.3101 19.6528 11.8755V15H18.585V11.9062C18.585 11.6045 18.519 11.3833 18.3872 11.2427C18.2554 11.1021 18.0371 11.0317 17.7324 11.0317C17.4893 11.0317 17.29 11.0977 17.1348 11.2295C16.9824 11.3584 16.8755 11.5283 16.814 11.7393L16.8184 15H15.7505V11.8711C15.7358 11.3115 15.4502 11.0317 14.8936 11.0317C14.4658 11.0317 14.1626 11.2061 13.9839 11.5547V15H12.916V10.2451H13.9224ZM23.1299 14.5342C22.8164 14.9033 22.3711 15.0879 21.7939 15.0879C21.2783 15.0879 20.8872 14.937 20.6206 14.6353C20.3569 14.3335 20.2251 13.897 20.2251 13.3257V10.2451H21.293V13.3125C21.293 13.916 21.5435 14.2178 22.0444 14.2178C22.563 14.2178 22.9131 14.0317 23.0947 13.6597V10.2451H24.1626V15H23.1562L23.1299 14.5342ZM25.7412 10.2451L25.772 10.7944C26.1235 10.3696 26.585 10.1572 27.1562 10.1572C28.1465 10.1572 28.6504 10.7241 28.668 11.8579V15H27.6001V11.9194C27.6001 11.6177 27.5342 11.395 27.4023 11.2515C27.2734 11.105 27.061 11.0317 26.7651 11.0317C26.3345 11.0317 26.0137 11.2266 25.8027 11.6162V15H24.7349V10.2451H25.7412ZM30.396 15H29.3281V10.2451H30.396V15ZM29.2622 9.01025C29.2622 8.84619 29.3135 8.70996 29.416 8.60156C29.5215 8.49316 29.6709 8.43896 29.8643 8.43896C30.0576 8.43896 30.207 8.49316 30.3125 8.60156C30.418 8.70996 30.4707 8.84619 30.4707 9.01025C30.4707 9.17139 30.418 9.30615 30.3125 9.41455C30.207 9.52002 30.0576 9.57275 29.8643 9.57275C29.6709 9.57275 29.5215 9.52002 29.416 9.41455C29.3135 9.30615 29.2622 9.17139 29.2622 9.01025ZM32.2031 14.1475H34.7344V15H30.876V14.3013L33.2886 11.1064H30.9199V10.2451H34.6421V10.9219L32.2031 14.1475ZM37.9302 15C37.8833 14.9092 37.8423 14.7612 37.8071 14.5562C37.4673 14.9106 37.0513 15.0879 36.5591 15.0879C36.0815 15.0879 35.6919 14.9517 35.3901 14.6792C35.0884 14.4067 34.9375 14.0698 34.9375 13.6685C34.9375 13.1616 35.125 12.7734 35.5 12.5039C35.8779 12.2314 36.417 12.0952 37.1172 12.0952H37.772V11.7832C37.772 11.5371 37.7031 11.3408 37.5654 11.1943C37.4277 11.0449 37.2183 10.9702 36.937 10.9702C36.6938 10.9702 36.4946 11.0317 36.3394 11.1548C36.1841 11.2749 36.1064 11.4287 36.1064 11.6162H35.0386C35.0386 11.3555 35.125 11.1123 35.2979 10.8867C35.4707 10.6582 35.7051 10.4795 36.001 10.3506C36.2998 10.2217 36.6323 10.1572 36.9985 10.1572C37.5552 10.1572 37.999 10.2979 38.3301 10.5791C38.6611 10.8574 38.8311 11.25 38.8398 11.7568V13.9014C38.8398 14.3291 38.8999 14.6704 39.02 14.9253V15H37.9302ZM36.7568 14.231C36.9678 14.231 37.1655 14.1797 37.3501 14.0771C37.5376 13.9746 37.6782 13.8369 37.772 13.6641V12.7676H37.1963C36.8008 12.7676 36.5034 12.8364 36.3042 12.9741C36.105 13.1118 36.0054 13.3066 36.0054 13.5586C36.0054 13.7637 36.0728 13.9277 36.2075 14.0508C36.3452 14.1709 36.5283 14.231 36.7568 14.231ZM40.7964 9.08936V10.2451H41.6357V11.0361H40.7964V13.6904C40.7964 13.8721 40.8315 14.0039 40.9019 14.0859C40.9751 14.165 41.104 14.2046 41.2886 14.2046C41.4116 14.2046 41.5361 14.1899 41.6621 14.1606V14.9868C41.4189 15.0542 41.1846 15.0879 40.959 15.0879C40.1387 15.0879 39.7285 14.6353 39.7285 13.73V11.0361H38.9463V10.2451H39.7285V9.08936H40.7964ZM43.0913 15H42.0234V10.2451H43.0913V15ZM41.9575 9.01025C41.9575 8.84619 42.0088 8.70996 42.1113 8.60156C42.2168 8.49316 42.3662 8.43896 42.5596 8.43896C42.7529 8.43896 42.9023 8.49316 43.0078 8.60156C43.1133 8.70996 43.166 8.84619 43.166 9.01025C43.166 9.17139 43.1133 9.30615 43.0078 9.41455C42.9023 9.52002 42.7529 9.57275 42.5596 9.57275C42.3662 9.57275 42.2168 9.52002 42.1113 9.41455C42.0088 9.30615 41.9575 9.17139 41.9575 9.01025ZM43.5581 12.5786C43.5581 12.1128 43.6504 11.6938 43.835 11.3218C44.0195 10.9468 44.2788 10.6597 44.6128 10.4604C44.9468 10.2583 45.3306 10.1572 45.7642 10.1572C46.4058 10.1572 46.9258 10.3638 47.3242 10.7769C47.7256 11.1899 47.9424 11.7378 47.9746 12.4204L47.979 12.6709C47.979 13.1396 47.8882 13.5586 47.7065 13.9277C47.5278 14.2969 47.27 14.5825 46.9331 14.7847C46.5991 14.9868 46.2124 15.0879 45.7729 15.0879C45.1021 15.0879 44.5645 14.8652 44.1602 14.4199C43.7588 13.9717 43.5581 13.3755 43.5581 12.6313V12.5786ZM44.626 12.6709C44.626 13.1602 44.7271 13.5439 44.9292 13.8223C45.1313 14.0977 45.4126 14.2354 45.7729 14.2354C46.1333 14.2354 46.4131 14.0947 46.6123 13.8135C46.8145 13.5322 46.9155 13.1206 46.9155 12.5786C46.9155 12.0981 46.8115 11.7173 46.6035 11.436C46.3984 11.1548 46.1187 11.0142 45.7642 11.0142C45.4155 11.0142 45.1387 11.1533 44.9336 11.4316C44.7285 11.707 44.626 12.1201 44.626 12.6709ZM49.373 10.2451L49.4038 10.7944C49.7554 10.3696 50.2168 10.1572 50.7881 10.1572C51.7783 10.1572 52.2822 10.7241 52.2998 11.8579V15H51.2319V11.9194C51.2319 11.6177 51.166 11.395 51.0342 11.2515C50.9053 11.105 50.6929 11.0317 50.397 11.0317C49.9663 11.0317 49.6455 11.2266 49.4346 11.6162V15H48.3667V10.2451H49.373Z" fill="white"/>
</svg>
