<svg width="80" height="20" viewBox="0 0 80 20" fill="none" xmlns="http://www.w3.org/2000/svg">
<rect width="80" height="20" fill="#F2F2F2"/>
<rect width="80" height="20" fill="#ECECEC"/>
<path d="M0 0H77C78.6569 0 80 1.34315 80 3V17C80 18.6569 78.6569 20 77 20H0V0Z" fill="#73814C"/>
<path d="M9.14746 11.6855C9.07585 12.444 8.7959 13.0365 8.30762 13.4629C7.81934 13.8861 7.16992 14.0977 6.35938 14.0977C5.79297 14.0977 5.29329 13.9642 4.86035 13.6973C4.43066 13.4271 4.09863 13.0446 3.86426 12.5498C3.62988 12.055 3.50781 11.4805 3.49805 10.8262V10.1621C3.49805 9.49154 3.61686 8.90072 3.85449 8.38965C4.09212 7.87858 4.43229 7.4847 4.875 7.20801C5.32096 6.93132 5.83529 6.79297 6.41797 6.79297C7.20247 6.79297 7.83398 7.00618 8.3125 7.43262C8.79102 7.85905 9.06934 8.46126 9.14746 9.23926H7.91699C7.8584 8.72819 7.70866 8.36035 7.46777 8.13574C7.23014 7.90788 6.88021 7.79395 6.41797 7.79395C5.88086 7.79395 5.46745 7.99089 5.17773 8.38477C4.89128 8.77539 4.74479 9.34993 4.73828 10.1084V10.7383C4.73828 11.5065 4.875 12.0924 5.14844 12.4961C5.42513 12.8997 5.82878 13.1016 6.35938 13.1016C6.8444 13.1016 7.20898 12.9925 7.45312 12.7744C7.69727 12.5563 7.85189 12.1934 7.91699 11.6855H9.14746ZM15.9297 10.6309C15.9297 11.3275 15.8092 11.9395 15.5684 12.4668C15.3275 12.9909 14.9824 13.3945 14.5332 13.6777C14.0872 13.9577 13.5729 14.0977 12.9902 14.0977C12.4141 14.0977 11.8997 13.9577 11.4473 13.6777C10.998 13.3945 10.6497 12.9925 10.4023 12.4717C10.1582 11.9508 10.0345 11.3503 10.0312 10.6699V10.2695C10.0312 9.57617 10.1533 8.96419 10.3975 8.43359C10.6449 7.90299 10.9915 7.49772 11.4375 7.21777C11.8867 6.93457 12.401 6.79297 12.9805 6.79297C13.5599 6.79297 14.0726 6.93294 14.5186 7.21289C14.9678 7.48958 15.3145 7.88997 15.5586 8.41406C15.8027 8.9349 15.9264 9.54199 15.9297 10.2354V10.6309ZM14.6943 10.2598C14.6943 9.47201 14.5446 8.86816 14.2451 8.44824C13.9489 8.02832 13.5273 7.81836 12.9805 7.81836C12.4466 7.81836 12.0283 8.02832 11.7256 8.44824C11.4261 8.86491 11.2731 9.45573 11.2666 10.2207V10.6309C11.2666 11.4121 11.418 12.016 11.7207 12.4424C12.0267 12.8688 12.4499 13.082 12.9902 13.082C13.5371 13.082 13.957 12.8737 14.25 12.457C14.5462 12.0404 14.6943 11.4316 14.6943 10.6309V10.2598ZM18.7617 6.89062L20.8125 12.3398L22.8584 6.89062H24.4551V14H23.2246V11.6562L23.3467 8.52148L21.2471 14H20.3633L18.2686 8.52637L18.3906 11.6562V14H17.1602V6.89062H18.7617ZM27.1553 11.3584V14H25.9199V6.89062H28.6396C29.4339 6.89062 30.0638 7.09733 30.5293 7.51074C30.998 7.92415 31.2324 8.47103 31.2324 9.15137C31.2324 9.84798 31.0029 10.39 30.5439 10.7773C30.0882 11.1647 29.4486 11.3584 28.625 11.3584H27.1553ZM27.1553 10.3672H28.6396C29.0791 10.3672 29.4144 10.2646 29.6455 10.0596C29.8766 9.85124 29.9922 9.55176 29.9922 9.16113C29.9922 8.77702 29.875 8.47103 29.6406 8.24316C29.4062 8.01204 29.084 7.89323 28.6738 7.88672H27.1553V10.3672ZM33.5518 13.0137H36.7793V14H32.3164V6.89062H33.5518V13.0137ZM41.8818 10.8262H38.9619V13.0137H42.375V14H37.7266V6.89062H42.3408V7.88672H38.9619V9.84961H41.8818V10.8262ZM48.6152 7.88672H46.3984V14H45.1729V7.88672H42.9756V6.89062H48.6152V7.88672ZM53.708 10.8262H50.7881V13.0137H54.2012V14H49.5527V6.89062H54.167V7.88672H50.7881V9.84961H53.708V10.8262Z" fill="white"/>
</svg>
