<svg width="80" height="20" viewBox="0 0 80 20" fill="none" xmlns="http://www.w3.org/2000/svg">
<rect width="80" height="20" fill="#ECECEC"/>
<rect width="80" height="20" fill="#F2F2F2"/>
<path d="M0 0H63C68.5228 0 73 4.47715 73 10V10C73 15.5228 68.5228 20 63 20H0V0Z" fill="#73814C" fill-opacity="0.8"/>
<path d="M5.02637 14H3.7959V6.89062H5.02637V14ZM7.53125 8.7168L7.56543 9.32715C7.95605 8.85514 8.46875 8.61914 9.10352 8.61914C10.2038 8.61914 10.7637 9.24902 10.7832 10.5088V14H9.59668V10.5771C9.59668 10.2419 9.52344 9.99447 9.37695 9.83496C9.23372 9.6722 8.99772 9.59082 8.66895 9.59082C8.19043 9.59082 7.83398 9.80729 7.59961 10.2402V14H6.41309V8.7168H7.53125ZM17.1064 12.4521L18.9131 6.89062H20.2705L17.7119 14H16.5156L13.9668 6.89062H15.3193L17.1064 12.4521ZM22.2236 14H21.0371V8.7168H22.2236V14ZM20.9639 7.34473C20.9639 7.16243 21.0208 7.01107 21.1348 6.89062C21.252 6.77018 21.418 6.70996 21.6328 6.70996C21.8477 6.70996 22.0137 6.77018 22.1309 6.89062C22.248 7.01107 22.3066 7.16243 22.3066 7.34473C22.3066 7.52376 22.248 7.6735 22.1309 7.79395C22.0137 7.91113 21.8477 7.96973 21.6328 7.96973C21.418 7.96973 21.252 7.91113 21.1348 7.79395C21.0208 7.6735 20.9639 7.52376 20.9639 7.34473ZM25.0068 7.43262V8.7168H25.9395V9.5957H25.0068V12.5449C25.0068 12.7467 25.0459 12.8932 25.124 12.9844C25.2054 13.0723 25.3486 13.1162 25.5537 13.1162C25.6904 13.1162 25.8288 13.0999 25.9688 13.0674V13.9854C25.6986 14.0602 25.4382 14.0977 25.1875 14.0977C24.276 14.0977 23.8203 13.5947 23.8203 12.5889V9.5957H22.9512V8.7168H23.8203V7.43262H25.0068ZM29.6162 9.80078C29.46 9.77474 29.2988 9.76172 29.1328 9.76172C28.5892 9.76172 28.223 9.97005 28.0342 10.3867V14H26.8477V8.7168H27.9805L28.0098 9.30762C28.2962 8.84863 28.6934 8.61914 29.2012 8.61914C29.3704 8.61914 29.5104 8.64193 29.6211 8.6875L29.6162 9.80078ZM29.9678 11.3096C29.9678 10.792 30.0703 10.3265 30.2754 9.91309C30.4805 9.49642 30.7686 9.17741 31.1396 8.95605C31.5107 8.73145 31.9372 8.61914 32.4189 8.61914C33.1318 8.61914 33.7096 8.84863 34.1523 9.30762C34.5983 9.7666 34.8392 10.3753 34.875 11.1338L34.8799 11.4121C34.8799 11.9329 34.779 12.3984 34.5771 12.8086C34.3786 13.2188 34.0921 13.5361 33.7178 13.7607C33.3467 13.9854 32.917 14.0977 32.4287 14.0977C31.6833 14.0977 31.0859 13.8503 30.6367 13.3555C30.1908 12.8574 29.9678 12.195 29.9678 11.3682V11.3096ZM31.1543 11.4121C31.1543 11.9557 31.2666 12.3822 31.4912 12.6914C31.7158 12.9974 32.0283 13.1504 32.4287 13.1504C32.8291 13.1504 33.14 12.9941 33.3613 12.6816C33.5859 12.3691 33.6982 11.9118 33.6982 11.3096C33.6982 10.7757 33.5827 10.3525 33.3516 10.04C33.1237 9.72754 32.8128 9.57129 32.4189 9.57129C32.0316 9.57129 31.724 9.72591 31.4961 10.0352C31.2682 10.3411 31.1543 10.8001 31.1543 11.4121Z" fill="white"/>
</svg>
