<svg width="80" height="20" viewBox="0 0 80 20" fill="none" xmlns="http://www.w3.org/2000/svg">
<rect width="80" height="20" fill="#ECECEC"/>
<path d="M0 0H16C21.5228 0 26 4.47715 26 10V10C26 15.5228 21.5228 20 16 20H0V0Z" fill="#2D355C" fill-opacity="0.3"/>
<path d="M7.81934 10.9873H4.95801V14H3.72266V6.89062H8.23926V7.88672H4.95801V10.001H7.81934V10.9873ZM13.6641 11.0068C13.6641 12.029 13.472 12.8005 13.0879 13.3213C12.707 13.8389 12.126 14.0977 11.3447 14.0977C10.5765 14.0977 9.99707 13.8454 9.60645 13.3408C9.21908 12.833 9.02051 12.0827 9.01074 11.0898V9.85938C9.01074 8.83724 9.20117 8.07064 9.58203 7.55957C9.96615 7.0485 10.5505 6.79297 11.335 6.79297C12.113 6.79297 12.6924 7.04199 13.0732 7.54004C13.4574 8.03809 13.6543 8.78353 13.6641 9.77637V11.0068ZM12.4775 9.67871C12.4775 9.01139 12.3864 8.52311 12.2041 8.21387C12.0218 7.90137 11.7321 7.74512 11.335 7.74512C10.9476 7.74512 10.6628 7.89323 10.4805 8.18945C10.2982 8.48242 10.2021 8.94141 10.1924 9.56641V11.1777C10.1924 11.8418 10.2852 12.3366 10.4707 12.6621C10.6562 12.9876 10.9476 13.1504 11.3447 13.1504C11.7256 13.1504 12.0072 13.0007 12.1895 12.7012C12.3717 12.3984 12.4678 11.9264 12.4775 11.2852V9.67871Z" fill="white"/>
</svg>
