<svg width="80" height="20" viewBox="0 0 80 20" fill="none" xmlns="http://www.w3.org/2000/svg">
<rect width="80" height="20" fill="#ECECEC"/>
<rect width="80" height="20" fill="#F2F2F2"/>
<path d="M0 0H66C71.5228 0 76 4.47715 76 10V10C76 15.5228 71.5228 20 66 20H0V0Z" fill="#C35D39"/>
<path d="M5.02637 14H3.7959V6.89062H5.02637V14ZM7.53125 8.7168L7.56543 9.32715C7.95605 8.85514 8.46875 8.61914 9.10352 8.61914C10.2038 8.61914 10.7637 9.24902 10.7832 10.5088V14H9.59668V10.5771C9.59668 10.2419 9.52344 9.99447 9.37695 9.83496C9.23372 9.6722 8.99772 9.59082 8.66895 9.59082C8.19043 9.59082 7.83398 9.80729 7.59961 10.2402V14H6.41309V8.7168H7.53125ZM17.1064 12.4521L18.9131 6.89062H20.2705L17.7119 14H16.5156L13.9668 6.89062H15.3193L17.1064 12.4521ZM22.2236 14H21.0371V8.7168H22.2236V14ZM20.9639 7.34473C20.9639 7.16243 21.0208 7.01107 21.1348 6.89062C21.252 6.77018 21.418 6.70996 21.6328 6.70996C21.8477 6.70996 22.0137 6.77018 22.1309 6.89062C22.248 7.01107 22.3066 7.16243 22.3066 7.34473C22.3066 7.52376 22.248 7.6735 22.1309 7.79395C22.0137 7.91113 21.8477 7.96973 21.6328 7.96973C21.418 7.96973 21.252 7.91113 21.1348 7.79395C21.0208 7.6735 20.9639 7.52376 20.9639 7.34473ZM25.3828 12.4961L26.501 8.7168H27.7266L25.8955 14H24.8652L23.0195 8.7168H24.25L25.3828 12.4961ZM28.1709 11.3096C28.1709 10.792 28.2734 10.3265 28.4785 9.91309C28.6836 9.49642 28.9717 9.17741 29.3428 8.95605C29.7139 8.73145 30.1403 8.61914 30.6221 8.61914C31.335 8.61914 31.9128 8.84863 32.3555 9.30762C32.8014 9.7666 33.0423 10.3753 33.0781 11.1338L33.083 11.4121C33.083 11.9329 32.9821 12.3984 32.7803 12.8086C32.5817 13.2188 32.2952 13.5361 31.9209 13.7607C31.5498 13.9854 31.1201 14.0977 30.6318 14.0977C29.8864 14.0977 29.2891 13.8503 28.8398 13.3555C28.3939 12.8574 28.1709 12.195 28.1709 11.3682V11.3096ZM29.3574 11.4121C29.3574 11.9557 29.4697 12.3822 29.6943 12.6914C29.9189 12.9974 30.2314 13.1504 30.6318 13.1504C31.0322 13.1504 31.3431 12.9941 31.5645 12.6816C31.7891 12.3691 31.9014 11.9118 31.9014 11.3096C31.9014 10.7757 31.7858 10.3525 31.5547 10.04C31.3268 9.72754 31.016 9.57129 30.6221 9.57129C30.2347 9.57129 29.9271 9.72591 29.6992 10.0352C29.4714 10.3411 29.3574 10.8001 29.3574 11.4121Z" fill="white"/>
</svg>
