<svg width="80" height="20" viewBox="0 0 80 20" fill="none" xmlns="http://www.w3.org/2000/svg">
<rect width="80" height="20" fill="#ECECEC"/>
<path d="M0 0H35C40.5228 0 45 4.47715 45 10V10C45 15.5228 40.5228 20 35 20H0V0Z" fill="#FFBCA5"/>
<path d="M7.81934 10.9873H4.95801V14H3.72266V6.89062H8.23926V7.88672H4.95801V10.001H7.81934V10.9873ZM13.8105 14H9.03027V13.1846L11.3984 10.6016C11.7402 10.2207 11.9827 9.90332 12.126 9.64941C12.2725 9.39225 12.3457 9.13509 12.3457 8.87793C12.3457 8.53939 12.2497 8.26595 12.0576 8.05762C11.8688 7.84928 11.6133 7.74512 11.291 7.74512C10.9069 7.74512 10.609 7.8623 10.3975 8.09668C10.1859 8.33105 10.0801 8.65169 10.0801 9.05859H8.89355C8.89355 8.62565 8.99121 8.23665 9.18652 7.8916C9.38509 7.54329 9.66667 7.27311 10.0312 7.08105C10.3991 6.889 10.8223 6.79297 11.3008 6.79297C11.9909 6.79297 12.5345 6.96712 12.9316 7.31543C13.332 7.66048 13.5322 8.139 13.5322 8.75098C13.5322 9.10579 13.4313 9.47852 13.2295 9.86914C13.0309 10.2565 12.7038 10.6976 12.248 11.1924L10.5098 13.0527H13.8105V14Z" fill="white"/>
</svg>
