<?xml version="1.0" encoding="UTF-8"?>
<svg width="337px" height="337px" viewBox="0 0 337 337" version="1.1" xmlns="http://www.w3.org/2000/svg" xmlns:xlink="http://www.w3.org/1999/xlink">
    <!-- Generator: Sketch 64 (93537) - https://sketch.com -->
    <title>antibody-icon</title>
    <desc>Created with Sketch.</desc>
    <g id="antibody-icon" stroke="none" stroke-width="1" fill="none" fill-rule="evenodd">
        <path d="M157.328606,336.095487 L155.813109,336.098939 L152.47695,335.194426 L149.200448,333.864126 L146.225669,331.925063 L144.036745,329.011292 L142.272299,326.157361 L140.083376,323.24359 L138.855836,316.557568 L138,313.39753 L138.235184,310.1742 L138.393505,299.775767 L138.870756,296.369464 L139.772484,293.023001 L139.825258,289.556856 L140.779759,282.744249 L141.681486,279.397786 L141.916671,276.174456 L142.871172,269.361848 L143.166012,265.71273 L144.06774,262.366267 L144.787057,258.77699 L144.657421,255.068031 L145.376738,251.478754 L145.671578,247.829636 L146.815373,244.300199 L147.050557,241.076869 L147.769874,237.487592 L149.201626,227.268681 L149.791307,219.970445 L150.510624,216.381168 L152.419627,202.755953 L152.714467,199.106835 L153.433784,195.517558 L153.251374,195.274743 L153.005866,193.937539 L153.96725,190.165288 L155.041064,182.501105 L155.153494,178.609172 L155.388678,175.385842 L156.048339,172.222353 L156.52559,168.816049 L156.995958,162.369389 L157.897686,159.022926 L158.374936,155.616622 L158.42771,152.150478 L159.329438,148.804015 L159.382212,145.337871 L159.859462,141.931567 L160.76119,138.585104 L163.2071,121.127798 L164.350894,117.598361 L166.708462,114.674234 L168.641554,111.690266 L170.999122,108.766139 L173.721511,106.327641 L176.566654,104.557745 L179.046977,102.30222 L181.89212,100.532324 L184.554852,98.519613 L187.399995,96.7497168 L192.725461,92.7242958 L195.205783,90.468771 L197.868516,88.4560605 L203.558802,84.916268 L208.884267,80.890847 L211.72941,79.1209508 L211.789066,78.6951628 L212.031133,78.5121891 L214.753522,76.0736907 L218.023142,74.363635 L220.927941,72.1679508 L223.65033,69.7294524 L226.55513,67.5337682 L229.095108,64.8524554 L232.182318,62.8995855 L234.904707,60.4610871 L237.991916,58.5082171 L240.714306,56.0697187 L243.012218,53.5713796 L248.337683,49.5459586 L251.365236,48.0188766 L254.027969,46.0061661 L256.143471,43.2650128 L258.988614,41.4951166 L261.468936,39.2395918 L264.496489,37.7125098 L267.159222,35.6997993 L270.369186,34.4155317 L273.031918,32.4028211 L276.364636,31.7871557 L279.514943,30.928676 L283.030071,30.5558248 L286.787265,30 L290.670655,31.6329556 L294.010255,34.0576464 L296.985034,35.9967088 L298.74948,38.8506395 L300.99806,41.3386229 L302.762506,44.1925536 L304.04282,47.4124317 L306,55.0697112 L305.522749,58.4760149 L304.014135,61.5198231 L303.112407,64.8662862 L301.179315,67.8502538 L299.063814,70.5914072 L296.159014,72.7870913 L293.678692,75.0426161 L291.56319,77.7837695 L284.122223,84.5503438 L281.399834,86.9888423 L278.130214,88.6988979 L275.407825,91.1373964 L273.109913,93.6357355 L270.205113,95.8314196 L267.724791,98.0869444 L261.915192,102.478313 L258.827983,104.431183 L255.923184,106.626867 L253.383205,109.30818 L250.660816,111.746678 L247.756016,113.942362 L245.033627,116.380861 L241.946418,118.333731 L239.224029,120.772229 L236.136819,122.725099 L230.692041,127.602096 L228.152062,130.283409 L225.247263,132.479093 L223.072105,135.646034 L215.9994,144.418415 L214.066308,147.402383 L212.498037,150.871979 L211.171832,154.158602 L209.603561,157.628198 L209.126311,161.034501 L207.800106,164.321124 L206.361472,171.499679 L205.40697,178.312286 L204.687653,181.901563 L203.255901,192.120474 L202.354173,195.466938 L201.876923,198.873241 L201.824149,202.339386 L201.104832,205.928663 L201.234468,209.637621 L200.515151,213.226899 L199.613423,216.573362 L199.136173,219.979666 L198.841332,223.628784 L198.364081,227.035087 L198.069241,230.684205 L197.59199,234.090509 L197.356806,237.313839 L196.879556,240.720143 L195.977828,244.066606 L195.925054,247.53275 L195.630214,251.181868 L194.675713,257.994475 L193.349508,261.281098 L192.464987,272.228452 L191.033235,282.447363 L189.5946,289.625917 L189.541826,293.092062 L188.822509,296.681339 L188.527669,300.330457 L187.808351,303.919734 L187.513511,307.568852 L186.794194,311.15813 L184.625918,317.365427 L183.906601,320.954705 L182.580396,324.241327 L180.464894,326.98248 L178.773869,329.783474 L176.900434,332.341654 L174.602522,334.839993 L171.452215,335.698473 L168.484318,336.799767 L165.211257,336.989644 L160.664765,337 L157.328606,336.095487 Z M152.709144,191.413744 L152.119794,198.716728 L150.976641,202.24846 L151.106205,205.959832 L149.963051,209.491565 L148.525223,216.674789 L148.04824,220.083309 L148.177803,223.79468 L147.03465,227.326413 L146.557667,230.734933 L146.262992,234.386425 L145.119838,237.918158 L144.825163,241.569649 L143.387335,248.752874 L143.516899,252.464246 L142.797984,256.055858 L141.896762,259.404498 L141.307412,266.707482 L140.164258,270.239215 L139.504967,273.404762 L138.074017,283.630321 L137.603913,290.081175 L136.70269,293.429815 L136.649946,296.898214 L135.566416,300.003882 L135.513672,303.472281 L134.612449,306.820921 L133.10468,309.86671 L132.627697,313.275229 L130.695688,316.261138 L127.315533,321.86677 L125.018909,324.366735 L122.539976,326.623727 L119.696428,328.394774 L116.488263,329.679878 L113.034728,329.626906 L109.521569,330 L108.066544,329.577389 L104.914563,328.91526 L100.307557,327.830521 L96.9136443,327.351484 L94.4243937,325.044975 L91.8755201,323.164531 L89.8701315,320.491836 L88.5905357,317.269863 L87.7351789,314.10777 L86.6975141,310.702705 L86.7502584,307.234306 L85.9545245,303.646147 L86.4315078,300.237628 L86.484252,296.769229 L88.3921851,283.13515 L88.6868603,279.483658 L89.4057745,275.892046 L90.3069968,272.543406 L92.2149298,258.909327 L92.9338441,255.317715 L92.5623493,251.789436 L93.2812635,248.197824 L94.1824858,244.849184 L94.23523,241.380784 L95.1364523,238.032144 L96.5674021,227.806585 L96.8620773,224.155093 L97.5809915,220.563481 L98.0579748,217.154961 L98.776889,213.563349 L98.8296332,210.09495 L99.5485475,206.503338 L99.8432227,202.851846 L99.8959669,199.383447 L100.37295,195.974927 L101.516103,192.443194 L102.105454,185.14021 L102.582437,181.731691 L103.483659,178.383051 L103.536404,174.914651 L104.49037,168.097612 L104.543114,164.629213 L105.444337,161.280573 L105.92132,157.872053 L105.549825,154.343774 L106.268739,150.752162 L106.374228,143.815364 L106.244664,140.103992 L105.44893,136.515834 L105.077435,132.987555 L104.039771,129.58249 L102.335936,126.300638 L101.298271,122.895572 L100.502537,119.307414 L98.5567713,116.208654 L97.0948675,112.743709 L95.1491017,109.64495 L92.719474,106.912376 L88.8279424,100.714856 L86.3983147,97.9822822 L82.5067832,91.784763 L75.9436929,83.0377624 L73.9979272,79.9390028 L71.5682994,77.2064287 L69.8048417,74.3506413 L67.859076,71.2518817 L66.1552412,67.9700294 L63.4836825,65.420548 L61.2959857,62.5048811 L59.5921509,59.2230288 L51.2059801,48.0463057 L49.4425224,45.1905184 L48.1629266,41.9685456 L45.9752298,39.0528787 L44.937565,35.6478132 L43.6579693,32.4258404 L42.8026125,29.2637472 L42.1891867,25.9185612 L42,22.6332548 L42.0527442,19.1648556 L43.0135894,15.3901505 L45.7940759,12.5240007 L50.0227089,7.03812756 L52.6839495,5.02410769 L58.7356631,1.96795691 L62.7326831,1.22867777 L67.8797351,0 L71.4559554,0.722008435 L74.9129299,2.29614678 L77.9456654,3.8104056 L80.676847,5.93382209 L83.6499595,7.87414587 L85.6553482,10.5468405 L88.1445988,12.8533497 L98.1715422,26.2168229 L100.418862,28.7064248 L102.18232,31.5622122 L104.187708,34.2349068 L106.435028,36.7245087 L108.138863,40.006361 L110.56849,42.7389352 L112.756187,45.6546021 L114.460022,48.9364544 L116.647719,51.8521213 L118.351554,55.1339736 L123.210809,60.5991219 L127.586202,66.4304557 L127.52658,66.8565206 L127.768511,66.6734279 L129.531968,69.5292153 L131.537357,72.2019099 L134.268539,74.3253264 L140.284705,82.3434103 L142.773955,84.6499195 L144.295482,87.6887996 L146.542802,90.1784015 L149.032052,92.4849107 L151.037441,95.1576053 L152.800899,98.0133927 L156.811676,103.358782 L158.757442,106.457542 L160.461277,109.739394 L161.498941,113.144459 L161.870436,116.672738 L162,120.384109 L161.894512,127.320908 L160.940545,134.137947 L160.039323,137.486587 L159.933834,144.423386 L158.608373,147.712146 L158.979868,151.240425 L158.502884,154.648944 L157.601662,157.997585 L156.647696,164.814624 L156.412643,168.040051 L156.359899,171.50845 L155.700608,174.673997 L154.269658,184.899556 L153.186128,188.005224 L152.709144,191.413744 Z M77.3109631,151 L73.7357148,150.275079 L70.7634104,148.326928 L67.7314993,146.806561 L64.7591948,144.85841 L62.2706208,142.542597 L55.5304944,135.043663 L53.5256508,132.360187 L51.0370768,130.044374 L49.0322332,127.360898 L46.7855244,124.861254 L42.7758372,119.494302 L41.2547241,116.443163 L37.2450369,111.076212 L35.4820585,108.208905 L33.4772149,105.525429 L31.7142365,102.658122 L29.4675277,100.158477 L27.7045493,97.2911697 L25.4578405,94.7915251 L23.4529969,92.1080493 L19.9270402,86.3734349 L17.9221966,83.6899591 L16.4010834,80.6388206 L14.2139813,77.7113924 L12.6928681,74.6602539 L11.4136202,71.4252842 L9.892507,68.3741457 L8.61325903,65.139176 L8,61.7804961 L8.47685361,58.358227 L8.5295835,54.8758368 L10.0965498,51.3899786 L12.0876397,47.9642414 L13.3496957,43.5626948 L15.4038308,41.2364773 L17.8820896,38.9703808 L23.5676412,35.4139973 L27.4409229,34 L31.6821601,34.6012107 L35.0155432,35.5099629 L38.5311847,36.6626674 L41.3212306,38.3668658 L43.5679394,40.8665104 L46.2983787,42.9984925 L49.2706831,44.9466432 L51.7592571,47.2624565 L53.2803703,50.313595 L57.2900575,55.6805467 L58.8111706,58.7316852 L61.0578794,61.2313298 L63.062723,63.9148057 L64.5838362,66.9659441 L67.0724102,69.2817574 L68.8353886,72.1490646 L71.0820974,74.6487092 L77.0966282,82.6991368 L78.8596066,85.566444 L81.1063154,88.0660886 L82.8692937,90.9333958 L84.8741373,93.6168716 L86.3952505,96.6680101 L89.066083,99.2277758 L90.5871962,102.278914 L92.3501746,105.146221 L94.7791419,107.889818 L95.8165246,111.308619 L99.3424814,117.043234 L100.197606,120.218082 L100.386741,123.516641 L101,126.875321 L100.099023,130.237469 L99.1384386,134.027401 L96.7828316,136.965233 L94.8513484,139.963187 L89.5303138,144.007475 L87.052055,146.273572 L84.0270206,147.807811 L79.7892219,148.733904 L77.3109631,151 Z M236.590254,173 L232.611505,171.800274 L228.997408,169.572376 L222.19059,162.154438 L219.606778,155.75438 L218.13081,152.313033 L218,148.626939 L218.481572,145.241633 L221.526121,139.191544 L223.232458,136.407817 L225.183053,133.442244 L227.317709,130.717989 L229.82049,128.476368 L235.682692,124.112071 L237.817349,121.387815 L240.74845,119.205666 L243.619354,117.446681 L251.679882,111.445772 L254.182663,109.204151 L256.869505,107.203848 L261.875067,102.720607 L264.745971,100.961621 L267.06469,98.4786834 L269.935594,96.7196978 L275.30928,92.7190916 L277.443936,89.9948362 L280.314841,88.2358506 L283.001684,86.2355475 L285.504464,83.993927 L288.559431,82.4762588 L291.062211,80.2346383 L294.485302,79.199605 L300.595234,76.1642686 L304.14219,75.7937159 L307.749342,75 L311.420163,75.2939279 L315.459108,76.0704907 L318.584689,78.6620802 L321.342145,80.7710349 L323.611084,83.243681 L325.635766,85.8981728 L327.904705,88.3708189 L328.524032,91.693222 L330,95.1345684 L329.70249,98.7611913 L329.649238,102.205968 L328.739346,105.531802 L327.217071,108.556847 L324.898353,111.039785 L322.763696,113.76404 L318.126258,118.729916 L315.991602,121.454171 L312.876439,123.395003 L307.870877,127.878244 L305.552158,130.361182 L302.865316,132.361485 L299.810349,133.879153 L297.307569,136.120773 L294.620726,138.121076 L292.302007,140.604014 L286.928322,144.604621 L284.057418,146.363606 L281.370575,148.363909 L278.499671,150.122895 L275.99689,152.364515 L273.310047,154.364818 L270.807267,156.606439 L267.7523,158.124107 L265.617644,160.848363 L259.875835,164.366334 L257.188992,166.366637 L254.318087,168.125623 L250.894997,169.160656 L247.840031,170.678324 L244.477137,171.290194 L240.869985,172.08391 L236.590254,173 Z" id="Shape" fill="#FFFFFF" fill-rule="nonzero"></path>
    </g>
</svg>