<?xml version="1.0" encoding="UTF-8"?>
<svg width="68px" height="67px" viewBox="0 0 68 67" version="1.1" xmlns="http://www.w3.org/2000/svg" xmlns:xlink="http://www.w3.org/1999/xlink">
    <!-- Generator: Sketch 64 (93537) - https://sketch.com -->
    <title>china</title>
    <desc>Created with Sketch.</desc>
    <g id="Page-1" stroke="none" stroke-width="1" fill="none" fill-rule="evenodd">
        <g id="Licensing" transform="translate(-221.000000, -1837.000000)">
            <g id="china" transform="translate(221.121232, 1837.883399)">
                <path d="M67.1147381,32.3320589 C65.0397082,18.9922461 43.672484,-2.04041454 30.0251395,0.159711314 C16.3777951,2.35983717 -3.38644689,20.9396509 0.49596629,45.8986476 C4.37837947,70.8576443 35.3655767,67.5745745 48.7575185,60.8763679 C62.1494604,54.1781613 69.1897681,45.6718718 67.1147381,32.3320589 Z" id="Oval-Copy-9" fill="#E7F2C4"></path>
                <g id="Icons/China" transform="translate(2.878768, 1.116601)" fill="#A1C439" fill-rule="nonzero">
                    <path d="M52.0539221,51.3757123 L51.4028454,54.593285 C51.4028454,54.7936491 51.4028454,55.0961565 51.6184639,55.1982997 L54.4342114,57.2097855 C54.8696695,57.5083705 54.654051,58.211596 54.1128941,58.3137895 L50.6503343,58.7144373 C50.4347157,58.7144373 50.2190972,58.9148014 50.1091774,59.1151655 L48.9169006,62.2345777 C48.701282,62.7374491 47.9445066,62.8395924 47.6189899,62.3367209 L46.1054823,59.4216757 C45.9955626,59.2213116 45.779944,59.1191683 45.5643255,59.0209475 L41.9918242,58.9188042 C41.3407476,58.9188042 41.125129,58.2155687 41.5605871,57.8108778 L44.0507746,55.599048 C44.2663932,55.3986839 44.2663932,55.1983198 44.2663932,54.9940333 L43.2897782,51.7764606 C43.0741596,51.2735892 43.7210153,50.7707177 44.2621721,51.0732251 L47.3991503,52.5818394 C47.6147689,52.6839827 47.9403072,52.6839827 48.050227,52.5818394 L50.9716083,50.7706976 C51.5127652,50.4681903 52.1638851,50.8728409 52.0539221,51.3757123 Z M24.0939415,9.34039821 L28.4795271,19.8582749 C28.8011324,20.5937059 29.5487649,21.1195787 30.4050105,21.2264403 L41.9538476,22.1714084 C43.8793309,22.3809456 44.7355765,24.8008776 43.2360775,26.0621814 L34.4691832,33.5315567 C33.8259725,34.0574505 33.5085372,34.8997221 33.7215508,35.7419937 L36.3946452,46.7857642 C36.8206723,48.4662054 34.682154,49.9411272 33.0782973,48.9920992 L33.0778055,48.9922044 L23.1330389,43.1046125 C22.3854065,42.6855383 21.5291822,42.6855383 20.7815712,43.1046125 L10.9454391,48.9963064 C9.23294794,50.048094 7.20310697,48.4704125 7.62909129,46.5763533 L10.3021857,35.5283756 C10.5151993,34.6861251 10.1935939,33.8438325 9.55455328,33.3179386 L0.78765899,25.8485633 C-0.707563101,24.5872595 0.0400265598,22.1673065 2.06988892,21.9577904 L13.618726,21.0128222 C14.4749502,20.9060027 15.2225827,20.3801088 15.5442094,19.6446568 L19.925625,9.34039821 C20.6732574,7.5532006 23.2419728,7.5532006 24.0939415,9.34039821 Z M57.9265908,33.7121354 L59.225363,36.7425522 C59.3353558,36.9437921 59.5511174,37.1450319 59.7668791,37.1450319 L63.2317156,37.4488615 C63.9974518,37.4528112 64.2132134,38.1591205 63.7774663,38.5655701 L61.1800194,40.6845385 C60.9642578,40.8857784 60.854265,41.0870183 60.9642578,41.2921977 L61.7215355,44.5238341 C61.8315283,45.0289036 61.1800194,45.5339731 60.7484961,45.2301435 L57.7151396,43.5137154 C57.499378,43.4111257 57.1736236,43.4111257 57.0636308,43.5137154 L54.0302744,45.2301435 C53.4887583,45.5339731 52.8372061,45.1275538 53.057235,44.5238341 L53.8145127,41.2921977 C53.9245054,41.0909578 53.8145127,40.7871282 53.598751,40.6845385 L50.8911706,38.5616306 C50.4596473,38.1591508 50.675409,37.4488615 51.322694,37.4488615 L54.7875304,37.1450319 C55.0032921,37.1450319 55.2190538,36.9437921 55.3290465,36.7425522 L56.6278187,33.7121354 C56.8435803,33.207066 57.6008581,33.207066 57.9265908,33.7121354 Z M54.3687896,17.4371095 L57.2949973,19.2428957 C57.5109657,19.344738 57.726934,19.344738 57.9471303,19.2428957 L61.0891979,17.7387257 C61.6312328,17.4371095 62.2834091,17.9384995 62.0631695,18.4398895 L61.0891979,21.5501119 C60.9790998,21.7498858 61.0891979,22.0515019 61.3051663,22.1533443 L63.7993939,24.358658 C64.2313307,24.7582057 63.909492,25.4633205 63.3674572,25.4633205 L59.8993013,25.5651628 C59.683333,25.5651628 59.4673646,25.6670051 59.3572665,25.9647105 L57.6210204,28.9691396 C57.405052,29.4705296 56.5369507,29.4705296 56.4268092,28.8672973 L55.232598,25.7570748 C55.1224999,25.557301 54.9065315,25.3575272 54.6905631,25.3575272 L51.2224073,24.9579795 C50.6803724,24.8561372 50.4644041,24.1549734 50.8963408,23.8533171 L53.7166566,21.8477571 C53.932625,21.7459148 54.0427231,21.4482094 53.932625,21.2445248 L53.280492,18.036431 C53.1746217,17.5389619 53.8267656,17.1354933 54.3687896,17.4371095 Z M49.0955286,0.431337739 L50.0795208,3.54532633 C50.1907516,3.74534207 50.4089419,3.94535781 50.6271323,3.94535781 L54.1309699,4.54932059 C54.6785814,4.65128625 54.8967717,5.35329911 54.3491602,5.65532067 L51.3929342,7.46331353 C51.1747438,7.56527919 51.063513,7.863345 51.063513,8.06727631 L51.4998936,11.2792547 C51.6111245,11.8832175 50.8410513,12.1812833 50.4046706,11.8832175 L47.5553383,9.87522902 C47.5596206,9.76541212 47.2301885,9.76541212 47.0120091,9.86738782 L43.8376146,11.2713734 C43.290003,11.4713891 42.7423915,11.0713577 42.8536224,10.4673949 L44.0601201,7.35340628 C44.1713509,7.15339054 44.0601201,6.85140915 43.9488892,6.74944349 L41.5360033,4.44336908 C41.0996226,4.0433376 41.4247725,3.34128458 41.972384,3.34128458 L45.4760792,3.4433406 C45.6942696,3.4433406 46.0236907,3.34137494 46.1349216,3.1413592 L47.8890308,0.329372082 C48.218452,-0.172625047 48.9842539,-0.0706593901 49.0955286,0.431337739 Z" id="Combined-Shape"></path>
                </g>
            </g>
        </g>
    </g>
</svg>