<?xml version="1.0" encoding="UTF-8"?>
<svg width="337px" height="337px" viewBox="0 0 337 337" version="1.1" xmlns="http://www.w3.org/2000/svg" xmlns:xlink="http://www.w3.org/1999/xlink">
    <!-- Generator: Sketch 64 (93537) - https://sketch.com -->
    <title>chromosome-icon</title>
    <desc>Created with Sketch.</desc>
    <g id="chromosome-icon" stroke="none" stroke-width="1" fill="none" fill-rule="evenodd">
        <path d="M35.6397012,20.6318041 C36.873954,19.9709492 37.9644218,19.099405 39.1158025,18.6683061 C40.4292374,18.1763206 41.9332585,18.6443507 43.1469786,18.4316381 C44.5154488,18.1931116 45.7304464,18.271663 46.9813134,18.3641416 C48.3251591,18.4636851 49.725753,18.0210678 50.9482517,18.4699237 C52.1685315,18.9177165 53.3395492,19.6347303 54.451948,20.3975421 C55.5021464,21.1180553 56.7490238,21.775801 57.7151363,22.7493926 C58.6086731,23.6496371 58.7547438,25.2723058 59.5845416,26.3663821 C60.3536485,27.3792239 61.6213328,28.092031 62.3423142,29.252945 C63.0169637,30.3367883 63.4746338,31.6013416 64.1128997,32.8003106 C64.7182747,33.934082 65.8076496,34.8770946 66.3852459,36.0996914 C66.937414,37.2666422 66.9880205,38.6996015 67.5185563,39.9365919 C68.0295861,41.1272932 68.8147258,42.2352844 69.3121213,43.4813862 C69.7923572,44.6877561 70.0474262,46.00572 70.5177157,47.2562188 C70.9752273,48.4761476 71.4475367,49.7096861 71.8994682,50.9633407 C72.3425087,52.1931772 72.9208241,53.3900414 73.3600646,54.6452209 C73.7944847,55.8817924 73.658782,57.3232708 74.0934011,58.5778658 C74.5216033,59.8206937 75.0605605,61.0329257 75.4922823,62.2855891 C75.9209793,63.5308272 76.5343427,64.7156911 76.9681559,65.9639239 C77.4012906,67.2112883 78.2005497,68.3320208 78.6403971,69.5755391 C79.0827747,70.8240726 79.1600736,72.1970227 79.6131629,73.4343904 C80.068415,74.6798571 81.0653832,75.7160415 81.533622,76.9443699 C82.0080942,78.1860073 82.0528191,79.5830086 82.5427365,80.7999934 C83.0398769,82.0351075 83.7518397,83.1667096 84.268608,84.3683097 C84.7951294,85.5930543 84.7161435,87.0769204 85.2662918,88.2608315 C85.8316205,89.4748339 86.4473457,90.6858201 87.0636064,91.8726155 C87.6817188,93.0635578 88.7039664,94.045032 89.3658593,95.2031675 C90.0345364,96.3699865 90.5341662,97.6367168 91.2392887,98.7666712 C91.9530471,99.9094558 93.152054,100.726261 93.8980037,101.828513 C94.6537625,102.946874 95.5737887,103.920114 96.3545873,104.992342 C97.1523464,106.086279 97.1792254,107.744737 97.9955514,108.787809 C98.8324136,109.855391 100.39613,110.314538 101.24527,111.324982 C102.120189,112.368423 102.559594,113.753524 103.439145,114.731817 C104.354708,115.749098 105.08838,116.908487 105.997353,117.84981 C106.954422,118.840256 108.182829,119.515229 109.119555,120.413893 C110.122439,121.374138 110.986703,122.421708 111.952779,123.270873 C113.007825,124.200153 114.365262,124.658251 115.359938,125.444517 C116.48433,126.336399 117.422275,127.297037 118.442511,127.993415 C119.681897,128.838804 120.753795,129.652835 121.791587,130.188666 C123.314652,130.976031 124.597008,131.3096 125.556728,131.365254 C126.886015,131.442611 128.242188,132.016363 129.418075,131.799648 C130.709961,131.560825 131.78359,130.58777 132.855437,130.010451 C133.973043,129.409965 134.682021,128.400178 135.517659,127.449451 C136.320611,126.536846 137.615054,125.869519 138.119067,124.650694 C138.571235,123.552084 138.551923,122.191163 138.730964,120.85846 C138.862967,119.881339 139.231627,118.597661 139.071468,117.001381 C138.960256,115.906636 138.788204,114.620301 138.533282,113.176368 C138.33313,112.040637 137.450191,110.906973 137.157737,109.528721 C136.911668,108.371532 137.096304,107.024669 136.783177,105.682146 C136.509802,104.511331 135.902672,103.339776 135.576869,102.018343 C135.286421,100.839891 134.892803,99.6217829 134.560359,98.3167259 C134.258139,97.1320892 134.179912,95.8325799 133.842423,94.5370578 C133.53219,93.3474949 133.233866,92.1038784 132.893056,90.8165442 C132.576349,89.6222499 132.419518,88.3394047 132.076434,87.0580431 C131.755473,85.8600805 130.738463,84.801798 130.392426,83.5255405 C130.068256,82.3216944 129.632933,81.1123973 129.286712,79.8376817 C128.947474,78.5896729 128.956793,77.2049849 128.602216,75.8822604 C128.265621,74.6251955 127.582314,73.4236597 127.239143,72.1102032 C126.908454,70.8429298 126.676364,69.5223947 126.347736,68.21156 C126.026713,66.9353363 125.989099,65.5705357 125.676737,64.260976 C125.370185,62.9748446 125.403233,61.6009832 125.10954,60.2922197 C124.819495,58.9987857 124.005576,57.8042059 123.735541,56.4937394 C123.465266,55.1918506 123.360142,53.8490301 123.114627,52.5361872 C122.869607,51.2257546 123.106516,49.833856 122.889959,48.5207631 C122.674136,47.2015028 122.684292,45.8623076 122.502176,44.5488756 C122.319677,43.2189621 122.086741,41.9186657 121.945595,40.6025904 C121.801352,39.2665601 121.578577,37.9597235 121.485057,36.6441944 C121.388865,35.2985909 120.794446,33.9940478 120.757117,32.6793656 C120.719391,31.3286364 120.637925,29.984113 120.668066,28.6740516 C120.69959,27.3195607 121.343157,26.0252662 121.455804,24.7248579 C121.572477,23.3709638 120.999403,21.9462629 121.214033,20.6626661 C121.437859,19.3215424 122.053673,18.0699071 122.395187,16.817227 C122.752426,15.5047156 123.019569,14.1675057 123.515712,12.9688146 C124.033685,11.7181074 125.057596,10.7489362 125.740987,9.63887884 C126.442098,8.49819636 127.282286,7.53552384 128.172926,6.56279944 C129.060981,5.59209555 129.770457,4.43369032 130.861242,3.65139501 C131.908797,2.8972809 132.914176,1.86707572 134.162554,1.30425904 C135.471209,0.767064574 136.943209,0.867166556 138.1671,0.582182206 C139.536554,0.263179171 140.842524,0.148995697 142.112518,0.117083215 C143.493043,0.0890577858 144.773017,0.291642382 146.04689,0.571708779 C147.358229,0.858861523 148.573872,1.28650447 149.785385,1.86700154 C150.970087,2.43628227 152.330201,2.773426 153.431736,3.58807598 C154.480312,4.36159634 155.583586,5.1944646 156.565343,6.1614271 C157.49253,7.07453556 158.065511,8.38184473 158.943032,9.44283044 C159.776273,10.4489158 160.849941,11.3202964 161.645625,12.438229 C162.405719,13.5070558 163.018858,14.7200625 163.752403,15.8739577 C164.460591,16.9847364 164.731126,18.3829099 165.419462,19.5553454 C166.088674,20.6979736 166.82582,21.8085023 167.48151,22.9924594 C168.12554,24.156161 169.131521,25.1363603 169.767624,26.3272305 C170.396632,27.5054652 171.076332,28.6650705 171.70233,29.8554451 C172.324625,31.037526 172.734827,32.3461575 173.328083,33.5816905 C173.906159,34.7871322 175.009684,35.7820167 175.556869,37.0367636 C176.090909,38.2640242 176.11215,39.7269182 176.612586,41.0000107 C177.102095,42.2466802 178.09559,43.3317248 178.548598,44.6222946 C178.993083,45.8859627 178.460533,47.4822712 178.86494,48.7870397 C179.264399,50.0677064 179.967477,51.2607873 180.324824,52.5799494 C180.675865,53.873273 181.219602,55.1307139 181.528037,56.4601228 C181.82912,57.7659084 182.057155,59.1007989 182.315999,60.4395861 C182.568849,61.7564868 182.977015,63.0625134 183.184912,64.4089423 C183.389712,65.7354162 183.090888,67.1351345 183.24802,68.4876632 C183.402918,69.8195635 183.885762,71.128775 183.992992,72.4867302 C184.096632,73.8223201 184.017977,75.1786751 184.072408,76.540125 C184.126513,77.8780577 184.320178,79.2258167 184.32304,80.5870043 C184.326932,81.9264113 183.973595,83.2652398 183.926427,84.6263598 C183.88029,85.9656993 183.617881,87.2894223 183.51951,88.6471964 C183.423033,89.9825163 184.116742,91.4052596 183.968709,92.7598825 C183.822753,94.0905093 182.786408,95.3085186 182.588219,96.65758 C182.399155,97.9365851 182.390101,99.2665293 182.064859,100.605781 C181.754042,101.87643 181.573461,103.208937 181.172099,104.511173 C180.784075,105.773621 180.202672,106.985787 179.75785,108.259049 C179.317945,109.517283 178.946331,110.806065 178.479927,112.057035 C178.009835,113.319276 177.827433,114.686767 177.358244,115.921734 C176.874671,117.198703 176.606539,118.531093 176.157304,119.756063 C175.678679,121.057134 174.542488,122.076271 174.140074,123.295425 C173.696048,124.640782 173.683424,126.053223 173.380263,127.266149 C173.0233,128.694511 173.011293,130.029559 172.927581,131.224855 C172.820123,132.777113 172.380204,134.252107 172.898022,135.300463 C173.447869,136.414691 174.775778,137.009127 175.663847,137.929026 C176.499382,138.797676 177.518734,139.389865 178.591249,140.126504 C179.583318,140.809928 180.430927,141.754446 181.574067,142.357596 C182.65033,142.924899 183.534946,143.998521 184.703223,144.521902 C185.823363,145.022762 187.087045,145.270238 188.256153,145.753815 C189.402705,146.229844 190.746489,146.251127 191.906043,146.729583 C193.063011,147.210059 193.996749,148.225726 195.13211,148.730076 C196.146238,149.182313 197.253766,150.018849 198.68201,150.729271 C199.785986,151.280516 201.447098,151.020313 202.754197,151.710717 C203.886243,152.308551 204.769458,153.558065 206.026838,154.252354 C207.169755,154.883647 208.301868,155.64504 209.527465,156.350176 C210.672065,157.006723 211.865026,157.65765 213.068082,158.374803 C214.211468,159.054673 215.679419,159.254427 216.859934,159.983598 C218.000566,160.686595 219.245234,161.277546 220.409682,162.023465 C221.5438,162.748333 222.199187,164.24996 223.345348,165.011564 C224.471412,165.758106 225.580251,166.537684 226.707942,167.316515 C227.825585,168.087816 229.079975,168.662781 230.189013,169.460381 C231.294291,170.256724 232.791684,170.52437 233.879298,171.344302 C234.972212,172.165687 235.571193,173.628879 236.6372,174.472684 C237.712578,175.323152 238.9473,175.958232 239.985354,176.826673 C241.041103,177.710655 242.280462,178.365885 243.286748,179.26474 C244.316341,180.18454 245.33614,181.107797 246.303267,182.040043 C247.234015,182.936386 248.091096,183.939227 249.035244,184.874044 C249.954913,185.784636 250.482868,187.108944 251.412545,188.053668 C252.321997,188.977837 253.680949,189.482296 254.600776,190.437512 C255.500194,191.373715 255.950933,192.755554 256.858013,193.719332 C257.749985,194.665547 258.768054,195.504855 259.665651,196.476041 C260.549313,197.432944 261.827264,198.039842 262.716058,199.019305 C263.591778,199.983811 264.015594,201.368506 264.895089,202.353835 C265.764224,203.327682 266.569823,204.362355 267.441559,205.353746 C268.302752,206.335195 269.530353,207.003806 270.392112,208.000196 C271.247765,208.98877 272.114569,209.975624 272.97011,210.97827 C273.818867,211.972233 274.473313,213.140382 275.321958,214.148415 C276.163635,215.149308 277.240338,215.962382 278.080546,216.975609 C278.918224,217.983821 279.439237,219.254821 280.274272,220.272088 C281.106594,221.285883 282.518688,221.82993 283.346149,222.851717 C284.170218,223.869163 284.382931,225.385229 285.203679,226.410862 C286.023933,227.434086 286.916598,228.400736 287.732174,229.43041 C288.546888,230.460759 289.522125,231.364294 290.330988,232.397815 C291.140346,233.433746 291.980922,234.443889 292.784429,235.482993 C293.589477,236.522292 294.1856,237.720626 294.983256,238.762902 C295.781408,239.807589 296.788852,240.690156 297.578934,241.736953 C298.372592,242.786549 298.743283,244.15122 299.527698,245.199647 C300.318897,246.256758 301.603439,246.939613 302.383177,247.994491 C303.166306,249.053711 304.238108,249.90138 305.010638,250.957694 C305.788595,252.020955 306.136618,253.39215 306.902435,254.45231 C307.675036,255.521154 308.283467,256.701481 309.041893,257.764619 C309.809323,258.837504 311.150592,259.497015 311.903351,260.561784 C312.6637,261.641599 312.762689,263.173799 313.508735,264.242414 C314.238316,265.291731 315.235334,266.235583 315.989839,267.403867 C316.696471,268.494886 317.369642,269.656795 318.06544,270.838782 C318.732674,271.97177 319.572377,273.048318 320.199125,274.252091 C320.812912,275.426835 321.180547,276.744951 321.729992,277.97416 C322.275238,279.192665 322.807554,280.421273 323.263556,281.680138 C323.720237,282.939871 323.769991,284.307772 324.111479,285.595974 C324.455624,286.894686 324.613812,288.179268 324.815954,289.495233 C325.020076,290.820838 326.160462,292.070796 326.191827,293.402722 C326.223008,294.73619 326.051166,296.133188 325.882964,297.460219 C325.717461,298.771158 324.822737,299.955432 324.436029,301.246218 C324.06112,302.497022 323.641154,303.725694 323.034496,304.946403 C322.460749,306.100847 322.137007,307.466895 321.336867,308.585662 C320.5915,309.625278 319.475788,310.439634 318.517765,311.439833 C317.636449,312.360524 316.995284,313.65434 315.922547,314.537917 C314.861919,315.40501 313.542618,315.880603 312.476292,316.582261 C311.334712,317.331525 310.190541,317.997514 309.045925,318.568759 C307.826847,319.174408 306.424301,319.173865 305.208093,319.591286 C303.928135,320.031946 302.770165,320.623414 301.498249,320.871805 C300.178283,321.129769 298.878203,320.977854 297.574109,321.050018 C296.237977,321.122042 294.909994,322.149788 293.60114,322.04528 C292.271893,321.941323 290.926617,321.591188 289.632917,321.326612 C288.329295,321.059999 287.105453,320.392646 285.848361,319.984801 C284.579807,319.574725 283.369116,319.020155 282.157027,318.49045 C280.934028,317.953887 279.466425,317.882512 278.30915,317.247055 C277.133629,316.600682 276.53885,314.997166 275.442932,314.273218 C274.316006,313.527349 272.771477,313.412596 271.740253,312.611534 C270.663718,311.777353 269.676508,310.84961 268.717257,309.982528 C267.693021,309.057144 266.575602,308.257701 265.700592,307.333194 C264.879289,306.463214 264.318943,305.161416 263.424838,304.009906 C262.664877,303.03187 261.556599,302.181936 260.748745,301.021772 C260.026938,299.985959 259.43333,298.773075 258.676735,297.609222 C257.980406,296.536722 257.251019,295.420132 256.527691,294.252661 C255.849027,293.156572 254.967283,292.131048 254.268475,290.961201 C253.600395,289.848452 253.239034,288.517044 252.554457,287.345867 C251.897456,286.218869 251.030367,285.181896 250.357435,284.011409 C249.705974,282.877286 248.885873,281.81339 248.223047,280.643399 C247.575585,279.501956 247.109166,278.238644 246.450961,277.069237 C245.805774,275.921822 245.862525,274.368629 245.207217,273.201153 C244.562397,272.050654 243.09608,271.344808 242.442807,270.179937 C241.796814,269.02616 241.557215,267.637378 240.904437,266.474917 C240.254868,265.31834 239.312398,264.323481 238.658391,263.164777 C238.004201,262.007616 237.986489,260.488826 237.327126,259.335706 C236.667636,258.177091 236.039123,257.001267 235.375945,255.853924 C234.707707,254.696551 233.820662,253.669575 233.152128,252.527815 C232.474096,251.373899 231.386109,250.471753 230.709449,249.339139 C230.018726,248.186747 229.493674,246.949668 228.804762,245.828024 C228.102338,244.681978 227.659618,243.390362 226.959811,242.281425 C226.24088,241.142682 224.957082,240.387927 224.241391,239.294198 C223.505714,238.171334 223.309707,236.66599 222.520736,235.544211 C221.746691,234.441536 220.851506,233.40414 220.03372,232.30767 C219.226295,231.222684 218.312951,230.206467 217.468937,229.133286 C216.63257,228.068115 215.43341,227.291982 214.568156,226.239591 C213.707157,225.190867 213.041586,223.978272 212.158173,222.94706 C211.272047,221.912374 210.872138,220.451668 209.970934,219.438552 C209.064486,218.416946 207.510833,217.984896 206.596643,216.988918 C205.669194,215.979524 204.709994,215.02011 203.782138,214.040402 C202.836954,213.042068 201.923865,212.036839 200.984562,211.074464 C200.021826,210.085649 199.456262,208.729195 198.507238,207.782806 C197.527628,206.804377 196.455021,205.950347 195.500033,205.021201 C194.502193,204.051422 193.24134,203.405994 192.281068,202.494962 C191.264687,201.52988 190.513615,200.339337 189.548738,199.447285 C188.510055,198.485643 187.487997,197.587923 186.525665,196.720452 C185.455311,195.755587 184.514198,194.762463 183.559344,193.924109 C182.440118,192.942889 181.48712,191.957653 180.558429,191.168778 C179.316599,190.114143 178.011995,189.540653 177.18241,188.871519 C176.069041,187.972424 175.218504,186.986844 174.248707,186.497174 C172.926531,185.82834 171.652441,185.274359 170.590164,185.252686 C169.237872,185.224067 168.389392,186.453317 167.440498,187.232431 C166.545913,187.969114 165.741057,188.733579 165.19158,189.959956 C164.712219,191.030869 164.114655,192.142391 163.888875,193.427708 C163.677999,194.627266 163.241119,195.892925 163.242547,197.154549 C163.244653,198.417042 163.890341,199.652164 164.096461,200.855947 C164.297817,202.034087 164.866736,203.270454 165.165327,204.695652 C165.418156,205.907691 165.189204,207.311551 165.532732,208.687656 C165.83911,209.909597 166.361449,211.143203 166.753747,212.484002 C167.109971,213.707553 166.879652,215.175408 167.318939,216.489284 C167.724569,217.704998 169.010685,218.663504 169.49542,219.950262 C169.949963,221.155729 169.876007,222.610495 170.404961,223.873892 C170.90706,225.067376 172.006004,226.035075 172.581397,227.276174 C173.125934,228.45468 172.91049,230.033972 173.526343,231.250452 C174.114549,232.410223 175.004322,233.460238 175.660635,234.652099 C176.288566,235.793418 177.113967,236.858767 177.809015,238.027357 C178.475132,239.15003 179.391909,240.143988 180.125015,241.288437 C180.828821,242.390054 181.715595,243.386477 182.483677,244.506396 C183.219251,245.577599 183.653279,246.863421 184.423534,247.925708 C185.189224,248.980374 186.017292,249.9905 186.812546,251.033256 C187.602868,252.071474 188.329031,253.162615 189.141582,254.184865 C189.956847,255.210588 190.340979,256.587132 191.170092,257.595043 C192.003276,258.608165 192.985961,259.501686 193.827878,260.494001 C194.679292,261.498472 195.622874,262.41835 196.474824,263.39863 C197.339664,264.395409 198.245994,265.345789 199.104713,266.315188 C199.983656,267.305143 201.252931,267.925812 202.116016,268.884808 C203.004754,269.871306 203.692141,271.01232 204.555465,271.962738 C205.453446,272.950406 205.87363,274.339336 206.734609,275.283197 C207.63974,276.276464 208.575803,277.193826 209.428768,278.13276 C210.338281,279.13519 211.762214,279.612653 212.599095,280.548771 C213.512567,281.570482 214.019492,282.867872 214.828956,283.804434 C215.744183,284.863929 217.122713,285.427206 217.880735,286.369001 C218.792632,287.502415 218.979764,289.003507 219.622945,289.951122 C220.323864,290.985075 221.415666,291.881443 222.077366,293.106852 C222.68674,294.233304 223.552591,295.339765 224.073165,296.601319 C224.567504,297.800865 224.617489,299.22592 224.986832,300.523124 C225.344005,301.778096 225.236336,303.141737 225.43479,304.468973 C225.626501,305.760925 225.828796,307.036218 225.831826,308.376298 C225.834825,309.677248 226.22899,311.041759 226.016738,312.371043 C225.81436,313.643669 225.465134,314.961107 225.034799,316.244027 C224.62782,317.455561 223.598497,318.43735 222.960775,319.643175 C222.370674,320.76425 222.326359,322.304931 221.514319,323.412019 C220.768442,324.42966 219.378851,324.996527 218.428403,325.992205 C217.558972,326.90501 217.067437,328.321045 216.014874,329.209122 C214.987494,330.076125 213.502004,330.292808 212.439748,330.999675 C211.324101,331.741265 210.583419,333.096051 209.440472,333.672986 C208.248316,334.27578 206.780943,334.261559 205.572453,334.69952 C204.321524,335.15246 203.017548,335.295849 201.760701,335.588403 C200.466092,335.889484 199.262041,336.565897 197.977046,336.714035 C196.656381,336.866269 195.32833,337.106777 194.035524,337.117083 C192.702794,337.127618 191.422806,336.281789 190.138584,336.160833 C188.802665,336.034121 187.37867,336.725755 186.117886,336.48021 C184.791229,336.223204 183.640873,335.299867 182.420599,334.937371 C181.106652,334.547377 179.703795,334.542881 178.542884,334.062688 C177.245336,333.528434 176.227597,332.561616 175.162215,331.96204 C173.880722,331.240444 172.621078,330.722722 171.744243,329.984227 C170.885103,329.261273 170.345558,327.929239 169.281768,326.850171 C168.44656,326.005039 167.129465,325.451097 166.178609,324.369097 C165.3707,323.452295 164.634855,322.350538 163.75059,321.254268 C162.970308,320.289313 162.549124,318.961294 161.711241,317.849762 C160.957977,316.848314 159.768387,316.096867 158.970357,314.972378 C158.240114,313.941758 157.909842,312.579068 157.14532,311.442383 C156.436684,310.38789 155.239983,309.604243 154.504347,308.454778 C153.816583,307.38258 153.49735,306.032242 152.786968,304.874233 C152.116996,303.783939 151.477419,302.641929 150.789395,301.473445 C150.138204,300.369876 149.403293,299.279976 148.735717,298.103906 C148.100043,296.988213 147.013413,296.087804 146.364563,294.905495 C145.746808,293.7772 145.458328,292.437795 144.826847,291.247509 C144.222884,290.108439 143.855704,288.819334 143.240545,287.623288 C142.650192,286.474983 141.941142,285.364878 141.342122,284.164613 C140.763837,283.006879 140.024911,281.904733 139.439996,280.697644 C138.874458,279.531349 138.221385,278.384502 137.649711,277.171262 C137.096553,275.999491 136.928254,274.629117 136.36896,273.4104 C135.826147,272.230547 134.946111,271.184111 134.399013,269.961459 C133.866728,268.771982 132.875626,267.75219 132.391487,266.519503 C131.914388,265.306487 131.403695,264.073572 130.97179,262.82245 C130.546429,261.588589 131.054193,260.049401 130.671072,258.782539 C130.292094,257.533416 129.338396,256.44245 129.000923,255.166493 C128.665923,253.902587 128.259089,252.644464 127.960918,251.360175 C127.667807,250.085916 127.724528,248.729917 127.4672,247.437491 C127.210988,246.155379 127.169773,244.833945 126.947437,243.536555 C126.72763,242.244179 125.864049,241.046448 125.676521,239.745635 C125.489487,238.447232 126.085901,237.049939 125.930779,235.746181 C125.774116,234.442229 125.4274,233.165103 125.302959,231.859749 C125.178024,230.551984 124.646595,229.276537 124.550433,227.970064 C124.45519,226.655882 124.566649,225.33263 124.500124,224.026775 C124.431803,222.709738 124.202187,221.401253 124.162217,220.095627 C124.123221,218.775256 124.070488,217.458626 124.05843,216.154965 C124.046356,214.831739 124.114754,213.515561 124.129746,212.214539 C124.145273,210.889326 124.300487,209.579434 124.343886,208.282787 C124.38529,206.956934 124.643899,205.658554 124.714164,204.366088 C124.785571,203.037771 125.11295,201.752784 125.210576,200.466909 C125.311987,199.136125 125.312308,197.826988 125.440376,196.548093 C125.574009,195.215907 125.683576,193.915109 125.843626,192.64339 C126.011205,191.308455 126.397138,190.050438 126.592379,188.791777 C126.800066,187.454873 127.071765,186.191015 127.307808,184.950818 C127.56127,183.610313 126.906578,182.129119 127.188851,180.914333 C127.492557,179.611484 128.265115,178.36324 127.96924,177.177841 C127.672687,175.991574 126.663058,174.996045 125.861698,173.945475 C125.140703,173.001321 124.18588,172.202097 123.131662,171.384041 C122.183358,170.648244 121.132839,169.989511 119.97083,169.36754 C118.899245,168.793786 117.874917,167.987336 116.662508,167.519411 C115.516043,167.075476 114.377462,166.394649 113.138534,166.050922 C112.050898,165.749807 110.554274,165.987775 109.062306,165.490751 C107.884583,165.099205 106.547943,164.7619 105.1657,164.256061 C103.958734,163.814647 102.73608,163.170138 101.4033,162.649426 C100.18429,162.171275 99.1466884,161.09552 97.8445746,160.553646 C96.6233864,160.047831 95.0488766,160.27673 93.7715784,159.716866 C92.549936,159.18204 91.3780408,158.446134 90.1211205,157.866154 C88.9027832,157.303575 87.9333386,156.167577 86.6963012,155.565071 C85.4823148,154.972523 84.1932089,154.518373 82.9748813,153.890062 C81.7674646,153.268608 80.5884082,152.592834 79.3903309,151.938914 C78.1937941,151.285187 76.7589682,151.056757 75.5839109,150.373663 C74.4003453,149.683234 73.1058932,149.168935 71.957855,148.449349 C70.7913872,147.720391 70.1368625,146.21809 69.0206483,145.461056 C68.0163835,144.781566 66.9227157,144.097812 65.8080208,143.23611 C64.8271684,142.478199 63.3570085,142.21165 62.3040848,141.317069 C61.348512,140.504448 60.3545647,139.626717 59.3515274,138.707145 C58.4160057,137.85089 57.799316,136.588917 56.8323008,135.6426 C55.9213957,134.750332 55.1270595,133.699867 54.1932968,132.730367 C53.3055952,131.807385 52.3720625,130.895039 51.468966,129.904377 C50.6025604,128.953569 49.5043215,128.176898 48.6310292,127.165746 C47.7879548,126.189718 46.6569429,125.419075 45.8110524,124.387913 C44.991804,123.389075 44.3163021,122.240174 43.4998485,121.191607 C42.7035641,120.170633 42.0608913,119.008668 41.2701154,117.941438 C40.4983353,116.898522 39.6695175,115.874998 38.9073166,114.791036 C38.1591789,113.726852 37.5227955,112.57116 36.7886748,111.468057 C36.0670768,110.384536 34.8890855,109.575084 34.1819992,108.455054 C33.4884814,107.352391 32.8127398,106.212067 32.1364474,105.076369 C31.4692856,103.955911 31.0103863,102.695115 30.3642092,101.54288 C29.7264845,100.405017 29.0285134,99.280662 28.4115898,98.1125635 C27.803302,96.9572954 27.6946681,95.5389077 27.1109408,94.3546621 C26.5343089,93.1830519 25.733979,92.1107011 25.1839429,90.9127186 C24.6389669,89.7247664 23.7100188,88.6885775 23.1949031,87.4731008 C22.6838019,86.2698698 22.8558785,84.7789972 22.3773513,83.5517151 C21.9075314,82.3497928 20.7809709,81.3645153 20.3814867,80.1300149 C19.985211,78.9013981 20.2174121,77.4768201 19.890554,76.2233343 C19.5641906,74.9722587 19.102736,73.7526137 18.8472747,72.4838998 C18.5909513,71.2158593 17.9202641,70.0002691 17.7361434,68.7233627 C17.5494927,67.4414411 18.3025952,66.0545762 18.1889532,64.7701509 C18.0738269,63.478495 17.7196076,62.2184184 17.6789744,60.9314893 C17.637224,59.634246 17.1308505,58.3322313 17.1624711,57.0491606 C17.1983714,55.7498032 17.7504035,54.4822754 17.8604807,53.2034529 C17.9732561,51.9085385 18.0422917,50.6198298 18.2336463,49.3544175 C18.4297904,48.0684826 18.3768586,46.7338285 18.6542396,45.4879048 C18.936961,44.216833 19.3002813,42.958303 19.669978,41.7381411 C20.0469228,40.4899423 21.192658,39.5416573 21.6605927,38.3566142 C22.1378107,37.1461392 21.9050158,35.6345766 22.4789622,34.498156 C23.0637325,33.3364983 23.6899678,32.1746074 24.3759758,31.1016602 C25.0753377,30.008491 26.1474784,29.1792331 26.9503684,28.1883671 C27.7658778,27.1834466 28.3365946,25.9362803 29.2599578,25.0498607 C30.1884932,24.1594002 31.5218169,23.7301853 32.5613585,22.971145 C33.5933253,22.2166243 34.4981971,21.2425698 35.6397012,20.6318041" id="Fill-1-Copy-15" fill="#FFFFFF"></path>
    </g>
</svg>