<?xml version="1.0" encoding="UTF-8"?>
<svg width="77px" height="69px" viewBox="0 0 77 69" version="1.1" xmlns="http://www.w3.org/2000/svg" xmlns:xlink="http://www.w3.org/1999/xlink">
    <!-- Generator: Sketch 64 (93537) - https://sketch.com -->
    <title>collab</title>
    <desc>Created with Sketch.</desc>
    <g id="Page-1" stroke="none" stroke-width="1" fill="none" fill-rule="evenodd">
        <g id="Licensing" transform="translate(-211.000000, -1613.000000)">
            <g id="collab" transform="translate(211.000000, 1613.000000)">
                <path d="M46.8570871,65.3765922 C60.3602106,60.2348521 73.1440341,42.4333481 67.9817195,29.0931424 C62.8192901,15.7529807 41.1308081,-2.94361198 19.2392153,11.2420801 C-2.65237758,25.4277722 -3.44263297,52.2389239 7.93308315,60.3535427 C19.3087993,68.4681616 33.3538961,70.5181563 46.8570871,65.3765922 Z" id="Oval-Copy-6" fill="#FFDDD1"></path>
                <path d="M19.6984737,40.0002099 L19.8088255,40.0058431 L33.1063138,41.629804 C33.3776864,41.6628931 33.6042732,41.8410713 33.6938517,42.0930648 C33.7722328,42.3113583 33.7315985,42.5510643 33.5896027,42.7320616 L33.5225929,42.8058039 L29.9920641,46.21663 C34.3204828,50.7271581 40.3540287,53.3514494 46.7168586,53.4939907 C48.5585423,53.5397994 50.0234244,55.0059385 50.0002771,56.7877218 C49.9768028,58.5056099 48.5784951,59.9007582 46.8244289,59.9949327 L46.6351784,60 L46.5482304,60 C38.6256631,59.8207096 31.0998957,56.6466206 25.5806558,51.1713164 L25.2311044,50.8187104 L21.9060914,54.0309886 C21.7110908,54.2168038 21.4239082,54.2804408 21.1657082,54.1964408 C20.9397774,54.1207171 20.7683168,53.9417023 20.7060367,53.7224973 L20.6861893,53.6262755 L19.0052362,40.7796388 C18.9788908,40.5683714 19.0526593,40.3545562 19.2107453,40.2018366 C19.340286,40.076688 19.5155699,40.0045694 19.6984737,40.0002099 Z M73.8276196,27 C75.5626089,27.0457812 76.9440758,28.4866772 76.998344,30.2602229 L76.9990355,30.4514701 L76.9836294,30.9569812 C76.6837476,38.6937241 73.5294077,46.0175661 68.1708296,51.4193613 L67.8182387,51.7689118 L71.0303789,55.0939162 C71.2161861,55.2889163 71.2823616,55.5734609 71.195824,55.8342974 C71.1201036,56.0602276 70.9410965,56.2316878 70.7219008,56.2939677 L70.6256832,56.3138151 L57.7795983,57.9947638 C57.56834,58.0211091 57.3545405,57.9473408 57.2043687,57.7892552 C57.0771024,57.6597149 57.004633,57.4844315 57.0002147,57.3015281 L57.0058359,57.1911766 L58.629727,43.8937229 C58.6628147,43.6223509 58.8409853,43.3931342 59.0929679,43.3061865 C59.311252,43.2278055 59.5509477,43.2684397 59.7336397,43.4104352 L59.8082176,43.4774448 L63.216356,47.0053339 C67.7265926,42.6791928 70.3507712,36.6456625 70.4933063,30.2828491 C70.5375335,28.5199802 71.8820797,27.1009227 73.5646463,27.0051528 L73.7461709,27 L73.8276196,27 Z M36.2204017,2.00523621 C36.43166,1.97889092 36.6454595,2.05265909 36.7956313,2.21074433 C36.9228976,2.34028434 36.995367,2.51556271 36.9997853,2.69694186 L36.9941641,2.80618435 L35.370273,16.1036096 C35.3371853,16.3776182 35.1590147,16.6042039 34.9070321,16.6937819 C34.688748,16.7721627 34.4490523,16.7295146 34.2663603,16.5887782 L34.1917824,16.522524 L34.1943301,16.522524 L30.7836506,12.9920121 C26.273414,17.3208417 23.6492355,23.3517282 23.5067003,29.7171581 C23.4624731,31.4800231 22.117927,32.8990775 20.4376453,32.9948472 L20.2563743,33 L20.1723805,33 C18.3754273,32.9525839 16.9576952,31.4086257 17.0009647,29.5485374 C17.1801498,21.6255789 20.3541016,14.0998385 25.8291705,8.5806249 L26.1817614,8.2310752 L22.9696212,4.90607813 C22.783814,4.71107845 22.7176386,4.42389724 22.8041761,4.16569854 C22.8798965,3.93976877 23.0589036,3.76830896 23.2780993,3.70602919 L23.3743169,3.68618185 L36.2204017,2.00523621 Z M47.4523497,0.000964520562 C55.5431829,0.184231222 63.2205716,3.49068832 68.7686871,9.18221898 L72.0935771,5.96995283 C72.2885367,5.78413831 72.5757087,5.7179603 72.8339328,5.80450128 C73.0921232,5.89104226 73.2791849,6.10994578 73.3134341,6.37466435 L74.994764,19.2186008 C75.0211084,19.4324087 74.9473426,19.6462231 74.7892625,19.7964008 C74.6338194,19.9491263 74.4125153,20.0203934 74.1912045,19.9949413 L60.8942075,18.3709866 C60.6228449,18.3378976 60.3962665,18.1571787 60.3066913,17.9077274 C60.2171162,17.6582827 60.2829773,17.3808381 60.4779437,17.1924497 L64.006,13.782 L63.6962697,13.4652279 C59.3921765,9.15021956 53.4951021,6.64625466 47.2837345,6.5069487 C45.4237062,6.46112714 43.9562141,4.96952842 44.0009983,3.17250474 C44.0484197,1.37548107 45.5923214,-0.0423027113 47.4523497,0.000964520562 Z" id="Shape" fill="#F9865D" fill-rule="nonzero"></path>
            </g>
        </g>
    </g>
</svg>