<?xml version="1.0" encoding="UTF-8"?>
<svg width="337px" height="337px" viewBox="0 0 337 337" version="1.1" xmlns="http://www.w3.org/2000/svg" xmlns:xlink="http://www.w3.org/1999/xlink">
    <!-- Generator: Sketch 64 (93537) - https://sketch.com -->
    <title>dna-icon</title>
    <desc>Created with Sketch.</desc>
    <g id="dna-icon" stroke="none" stroke-width="1" fill="none" fill-rule="evenodd">
        <path d="M283.658004,-1.42570574 L281.01092,0.360485273 L278.928497,3.10697018 L276.842885,5.84961145 L275.670274,9.13007052 L273.439277,11.8343669 L272.819328,13.1259195 L274.141191,13.6661635 L274.642665,13.5479723 L276.05617,14.3626096 L278.720805,21.6964744 L278.034524,29.0552806 L281.268472,36.8237983 L285.238834,44.370722 L288.762911,52.1435622 L292.385155,59.8698644 L296.461805,67.3680035 L300.82259,74.7206536 L304.377914,82.4860298 L308.327032,90.0560816 L317.063167,92.063574 L317.129832,92.4793334 L318.514079,93.3269956 L319.289704,95.0478234 L322.124248,95.1821999 L325.201095,93.3508267 L328.429388,92.1853932 L331.779184,91.2419022 L334.88147,89.6857533 L337.876679,87.8991802 L340.270542,85.8436037 L338.668275,88.2756397 L336.889167,91.0724218 L334.238624,93.1835399 L332.571759,96.0876211 L330.024916,98.2247507 L327.433578,100.256513 L325.304501,102.797564 L322.689933,104.800426 L320.215788,106.770557 L319.599582,108.853204 L312.290245,112.631178 L309.429154,111.816059 L307.675037,112.548471 L304.426001,113.549625 L301.041958,114.001513 L297.756116,114.864453 L294.324862,114.741131 L291.043275,115.969279 L287.628655,115.646405 L284.247771,115.618082 L280.862357,115.579787 L277.432607,115.795496 L274.113295,114.954863 L270.728549,114.598203 L267.426304,113.794083 L264.144621,112.927206 L260.846475,112.102456 L257.879216,110.291517 L255.305594,109.876884 L254.564832,112.812591 L253.593385,116.16523 L253.768292,119.678732 L252.898627,123.045744 L252.191278,126.433302 L251.806528,129.86913 L251.477091,133.314466 L251.188576,136.771518 L250.224455,140.1011 L249.453784,143.46258 L248.546391,146.795252 L247.70899,150.137978 L247.306259,153.588233 L246.679848,156.997231 L245.761724,160.333817 L243.90008,163.352401 L243.356775,166.829972 L241.3179,169.712569 L240.008194,172.305939 L242.053417,171.426122 L240.574778,175.061228 L239.000462,178.143631 L236.640123,180.683921 L234.258158,183.131066 L231.550424,185.188299 L228.9638,187.430601 L226.953713,188.240558 L226.717721,188.392269 L226.169472,188.557028 L225.788049,188.7117 L222.82713,190.493275 L219.579479,191.67328 L218.472609,191.655575 L216.685179,192.171677 L217.036647,191.634509 L216.077747,191.621444 L212.695355,191.949881 L209.297332,192.103053 L205.885407,192.150428 L202.418714,192.405542 L198.990258,192.01726 L195.701582,190.911526 L192.321955,190.285484 L189.135609,188.947509 L185.660646,188.560635 L182.497287,187.189598 L179.468856,185.505582 L176.649468,184.697014 L176.657238,185.356119 L176.085705,188.770491 L175.864905,192.209281 L175.649142,195.64963 L175.479377,199.096984 L175.118081,202.524078 L174.326567,205.892625 L174.071946,209.334274 L172.939855,212.642511 L173.245938,216.191672 L172.100184,219.482541 L171.315198,222.833686 L170.56334,226.195278 L170.064369,229.650776 L168.529845,232.780535 L167.376592,236.046422 L166.304785,237.925049 L166.73944,237.80845 L164.483813,240.714392 L163.657723,241.880449 L162.81265,242.84861 L162.589664,243.133375 L162.463372,243.248897 L161.36954,244.504393 L160.776428,244.795545 L160.071321,245.442327 L158.144627,247.562177 L157.919199,248.245172 L157.057256,248.698243 L155.377812,250.403737 L152.666627,252.501032 L149.744571,254.254841 L146.692247,255.743054 L143.62985,257.20168 L140.376383,258.253446 L137.039581,259.095277 L133.593829,258.966514 L130.187734,258.598865 L126.794403,258.657518 L123.388906,258.626907 L120.071447,257.757523 L116.591158,258.035657 L113.322266,256.972419 L109.875832,256.804028 L106.534169,256.095291 L103.374293,254.704387 L100.042711,253.972303 L97.3028744,252.906237 L97.144847,255.904655 L96.8490851,259.345753 L96.8942638,262.837372 L96.3859118,266.249978 L95.0244865,269.516159 L94.2973854,272.881417 L94.2473382,276.387923 L93.9667118,277.067806 L94.3183839,278.625373 L93.2950082,281.888053 L92.1589196,283.740076 L91.8243035,286.442943 L90.486957,289.646695 L89.657168,292.995585 L88.2457746,296.150707 L86.9397869,299.328178 L85.8148111,302.571591 L84.5805166,305.781921 L82.8453498,308.751688 L81.3883272,311.863549 L79.7509836,314.896163 L78.7939657,316.044155 L78.6525297,316.512577 L79.2005607,316.976631 L76.9994952,318.131438 L75.2181297,320.054505 L73.2979218,322.992882 L70.385991,324.896067 L67.7078109,327.102027 L64.5872259,328.623186 L61.303199,329.695578 L58.1814343,330.668725 L55.5818561,332.774485 L52.6259371,334.126498 L49.3338016,334.684341 L46.3963685,336.039982 L43.6350352,337.129856 L46.3653593,335.698481 L48.8593842,333.36353 L51.6189113,331.341944 L54.3413762,329.199585 L56.7060255,326.680432 L58.5044805,323.716549 L60.1272555,320.664572 L61.9669465,317.788289 L62.626231,317.128216 L62.162224,316.925705 L58.3764307,309.412311 L60.1746474,303.849717 L59.4531644,302.59047 L57.9313183,299.518763 L54.9039032,293.364581 L53.3133251,290.327959 L51.9332573,287.180751 L50.0606822,284.290089 L48.5888628,281.190835 L47.2758226,278.012203 L45.5331706,275.059128 L43.9778644,272.006957 L42.3863804,268.96834 L40.526674,266.074236 L39.410659,262.789223 L37.8358865,259.743974 L36.0224013,256.81924 L34.6219239,253.683233 L32.9920865,250.663971 L31.1664937,247.743296 L29.5655124,244.707071 L28.3249022,241.488786 L27.3330839,240.080914 L19.5780829,237.925001 L18.9395742,236.135989 L18.327611,235.033012 L16.9534724,235.243785 L13.4947574,235.700738 L10.1282541,236.624394 L6.93732896,238.039421 L3.6782151,239.269385 L1.03502876,241.609571 L-1.84055514,243.573709 L0.118389077,240.937714 L2.10891432,238.469735 L4.80155709,236.712882 L6.73830879,234.13076 L9.36234001,232.337242 L12.1277037,230.311561 L14.8335274,228.189755 L15.1570958,227.94108 L17.1708416,220.555545 L16.8990227,220.301348 L24.9517517,216.414574 L32.0612284,218.914859 L32.7746906,218.648456 L36.1904396,218.266365 L39.5986636,218.018095 L42.9637536,216.868925 L46.4180341,217.158376 L49.8804587,216.849385 L53.3188506,217.212942 L56.7522372,217.595133 L60.0461119,218.829867 L63.4483131,219.286379 L66.9511282,219.361782 L70.2084697,220.566925 L73.6098139,221.1677 L76.9251214,222.116013 L80.0376259,223.705522 L83.3766897,224.568455 L83.578263,224.669706 L83.587872,224.604758 L83.3083995,221.030512 L84.3840695,217.616072 L84.6586738,214.106156 L85.4097834,210.664546 L86.0696217,207.215817 L85.8902314,203.633138 L86.6830615,200.19759 L86.9065975,198.041304 L85.7350965,195.47874 L88.0241437,187.303001 L89.386305,186.762865 L89.4641428,186.412845 L90.4047483,183.025141 L90.9725957,179.535936 L92.9019626,176.446155 L93.1160136,172.83047 L94.2632235,169.500445 L95.930342,166.373461 L97.4467482,163.203817 L98.2361691,161.389912 L97.3266731,161.84039 L99.0110119,158.698362 L99.6383717,158.134069 L99.833648,157.41329 L99.2476446,156.852935 L102.284443,155.436978 L103.825623,152.636306 L106.83831,150.147925 L109.522227,147.877285 L111.8485,145.072429 L115.332563,144.107857 L118.610829,142.795086 L122.126006,142.411597 L125.647593,142.51985 L129.219561,141.974377 L132.704899,142.751587 L136.174226,143.46919 L139.570355,144.484227 L143.026842,145.251933 L146.581096,145.757233 L149.870602,147.109436 L153.013244,148.826716 L156.330171,150.068777 L159.023105,151.190129 L159.212605,149.940557 L159.626104,146.480116 L159.785652,143.001798 L159.741272,139.504523 L160.132007,136.039509 L160.28061,132.549805 L161.570785,129.201964 L161.506616,125.688661 L162.285475,123.178472 L161.225992,121.327435 L163.208779,116.730131 L163.611312,115.460251 L163.799613,111.930853 L164.774431,108.577162 L165.731525,105.22046 L166.983697,101.961585 L168.344787,98.7518545 L170.028422,95.7025338 L171.519232,92.5676191 L173.447047,90.0376288 L172.248139,90.3348698 L174.368044,87.3552998 L176.695899,85.9266763 L176.711743,85.8574513 L176.745239,85.8859682 L178.033069,84.1016403 L178.154722,84.0049238 L178.857511,82.8576108 L180.813853,81.915887 L180.991248,81.7770929 L182.849961,80.45163 L184.105573,79.2705742 L187.02428,77.3854816 L190.225702,76.0571089 L193.164526,73.9525971 L196.684704,73.5769395 L203.661911,73.3114473 L207.165923,73.159669 L210.642548,73.5756216 L214.139169,73.843906 L217.425394,75.3106778 L220.947733,75.4724818 L224.234787,76.7483289 L227.769253,77.0056697 L231.040393,78.2824932 L234.560919,78.6722394 L237.876887,79.7925157 L240.995829,80.7567373 L240.973368,78.4872947 L241.20715,75.0262458 L241.561852,71.5761646 L242.361453,68.1851762 L242.526329,64.7111733 L242.777148,61.2399753 L243.623434,57.8691524 L243.99637,54.4136719 L244.842002,51.0498826 L246.166848,47.9935678 L247.333671,43.7077103 L247.540491,43.5977914 L248.227023,41.2168966 L248.780364,37.7751846 L249.662678,34.4158967 L251.230545,31.311884 L252.562308,28.1212557 L253.989287,24.9686746 L255.329645,21.7471936 L257.466877,18.9921606 L257.639416,18.7335935 L259.148514,14.7137488 L264.06708,11.8994909 L264.479009,11.457932 L266.987403,9.25310631 L269.545522,7.09737906 L272.000651,4.76999951 L275.259281,3.62157482 L277.822012,1.41034011 L280.731149,-0.254352879 L283.658004,-1.42570574 Z M56.6060309,238.392514 L55.8348024,238.142328 L52.291966,238.045095 L49.0311909,236.774878 L45.562326,236.485529 L42.1445817,235.93464 L38.7435908,235.163109 L36.8745847,235.042833 L36.7021268,235.475945 L37.5641404,237.459247 L39.4287349,240.345487 L40.5148346,243.632209 L42.0293419,246.698221 L43.7120189,249.678962 L45.4910403,252.61045 L46.6640934,255.851769 L48.509906,258.745709 L49.8074214,261.918544 L51.4997053,264.890519 L53.0084755,267.962066 L56.1509652,274.034527 L57.5472341,277.161334 L59.073406,280.225337 L60.8696937,283.147899 L62.3850943,286.215906 L63.8409566,289.317155 L65.2854253,292.423176 L66.7647777,295.50781 L68.0524703,298.694328 L68.3018991,299.188356 L69.0876124,298.924191 L72.3226197,299.975604 L73.3670283,297.079645 L74.1890071,293.705291 L75.6004767,290.508002 L75.9116747,287.005059 L76.1559731,285.835475 L75.8048152,285.555759 L73.5245925,283.376638 L72.1802075,280.480242 L72.1260169,277.299968 L72.1669556,274.093642 L73.6265711,271.323579 L72.2052332,268.361035 L70.9716258,265.25651 L68.9742749,262.560596 L67.6756082,259.489932 L66.3850876,256.416955 L64.7075932,253.546061 L62.8943784,250.749806 L61.4682178,247.745169 L60.0147776,244.754078 L58.6481554,241.716201 L56.7945356,238.941953 L56.6060309,238.392514 Z M81.3430425,247.116391 L80.956414,246.990967 L77.8686883,245.736495 L74.465849,245.09451 L71.3439704,243.789573 L69.665683,243.368624 L70.6721305,245.559112 L72.0180585,248.51391 L73.3965585,251.448221 L74.5886735,254.483648 L76.0274827,257.39207 L77.9127448,260.068 L78.8799586,263.227817 L79.3177868,263.899507 L79.1994624,262.842591 L79.8290722,259.473788 L80.500656,256.104779 L80.53832,252.683413 L81.4054101,249.314415 L81.3430425,247.116391 Z M103.404701,213.171277 L103.545911,214.632478 L102.311451,218.012983 L102.011564,221.520178 L101.321426,224.976533 L101.305783,228.510601 L100.872547,230.859788 L103.804445,231.360357 L107.202051,231.93474 L110.454131,232.992481 L113.633158,234.323242 L113.813828,234.389751 L111.666686,230.097699 L108.206031,221.964482 L104.115834,214.154993 L103.404701,213.171277 Z M109.674856,177.156356 L109.669222,177.248013 L108.763386,180.594676 L107.822138,183.938796 L107.141329,187.340756 L106.857134,190.817495 L106.695875,191.581497 L109.186359,194.778493 L107.058489,202.045971 L111.15382,209.852929 L114.80718,217.863297 L118.558977,225.827675 L122.749197,233.568341 L124.49152,236.532038 L126.551636,237.060697 L129.898069,237.612756 L133.109894,238.974427 L136.476618,239.452053 L139.656144,239.10563 L140.083804,235.409876 L136.691312,227.828636 L132.740707,220.531004 L128.3148,213.479493 L124.435056,206.142163 L121.428094,198.35163 L116.585916,191.511897 L109.674856,177.156356 Z M134.543367,165.655176 L132.007955,164.696983 L128.578421,163.818569 L125.295447,162.390349 L121.856339,161.494071 L118.545246,161.338652 L120.260276,163.820511 L117.204246,171.383037 L120.980727,178.964738 L125.11673,186.180499 L129.487553,193.278106 L132.3691,201.130761 L136.908241,208.148602 L140.100784,215.843705 L144.26628,223.054289 L147.96409,230.480016 L154.491419,232.146714 L155.536265,228.994436 L155.886599,225.581786 L156.654637,222.234496 L156.389044,218.745053 L156.638778,216.92928 L155.644649,216.09172 L153.70979,213.815601 L152.147454,211.210612 L151.908158,208.174664 L152.027854,205.104708 L153.574818,202.411067 L151.823085,199.693113 L150.753229,196.625151 L149.160253,193.836115 L147.705045,190.969107 L146.065453,188.201709 L144.541305,185.36985 L143.159801,182.466496 L141.847564,179.524466 L139.894976,176.915528 L138.59121,173.967722 L137.167383,171.086955 L135.504736,168.326158 L134.543367,165.655176 Z M158.703172,175.832367 L157.518918,175.059733 L154.369116,173.41395 L151.099366,172.007286 L147.807513,170.662429 L146.272315,169.751758 L147.261276,171.761368 L148.70953,174.607045 L150.141455,177.461914 L151.945853,180.132746 L153.276709,183.034033 L154.835483,185.824755 L156.070186,188.778935 L157.697663,191.538121 L158.10587,192.45611 L158.187964,190.994309 L158.795715,187.618189 L158.293034,184.189568 L158.276753,180.787504 L158.316905,177.386313 L158.703172,175.832367 Z M178.589376,141.084193 L178.533155,141.350582 L178.556438,144.770679 L178.519675,148.182244 L178.544865,151.59386 L177.997368,154.97774 L178.194051,158.390405 L178.228976,160.531747 L178.971178,161.044927 L182.107723,162.382326 L185.554635,162.994852 L188.472059,164.84028 L191.695356,165.957197 L192.333001,166.297213 L191.668809,164.967583 L188.156538,156.698834 L184.009665,148.76827 L178.712123,141.439647 L178.589376,141.084193 Z M187.667806,104.83094 L183.898259,104.168608 L183.492368,107.053734 L182.33561,110.315971 L181.890985,113.338142 L184.993029,120.22342 L183.53953,127.590055 L187.263617,135.819626 L191.090996,144.011126 L195.372852,151.974621 L199.939025,159.790653 L203.698919,168.025382 L204.928084,170.133754 L208.104278,170.846223 L211.422866,171.678042 L214.720318,172.627025 L217.214403,173.357274 L216.57423,172.411938 L218.52693,165.056828 L214.497913,157.540336 L210.02102,150.376419 L206.10285,142.922099 L203.075194,135.000595 L198.173692,128.052483 L194.539415,120.446592 L190.896033,112.8396 L187.667806,104.83094 Z M210.944864,92.6561319 L210.184194,92.6040232 L206.872209,91.6771607 L203.529835,90.8659911 L200.180663,90.063219 L196.842134,89.1628899 L195.403422,89.1804568 L196.727197,92.8930823 L194.818166,100.431362 L199.07368,107.911671 L203.507706,115.104271 L206.430813,123.062652 L211.034292,130.172564 L214.273683,137.976317 L218.497741,145.2782 L222.25953,152.82124 L226.148002,160.24063 L230.281184,161.308189 L230.750257,160.44306 L231.247081,157.007899 L232.091283,153.665762 L232.485764,150.221019 L233.398661,146.894074 L234.075438,145.121495 L233.765156,144.916062 L233.56301,144.821852 L232.182496,143.993147 L230.069157,141.660783 L229.087905,138.700734 L228.194884,135.689539 L228.756933,132.580236 L230.177869,129.827843 L228.948965,126.786023 L226.964016,124.121564 L225.667602,121.102168 L224.375514,118.077429 L222.707354,115.249902 L220.905131,112.489487 L219.481273,109.533717 L218.032644,106.588221 L216.666685,103.598451 L214.823363,100.859101 L213.727386,97.7328151 L212.219036,94.8173165 L210.944864,92.6561319 Z M239.5145,103.341563 L238.973658,103.185155 L235.928159,101.685397 L232.831559,100.305414 L229.436707,99.6597994 L226.380452,98.1717954 L223.495066,97.4870573 L224.515353,99.5993157 L225.85336,102.515981 L227.180242,105.440263 L228.542993,108.346272 L229.716152,111.345582 L231.13602,114.222387 L232.999199,116.868601 L233.948509,119.989744 L235.70807,122.696568 L236.816775,124.84386 L236.878532,123.738868 L237.326294,120.303939 L237.260127,116.814726 L238.134772,113.423692 L238.778115,110.009036 L238.567053,106.522697 L239.5145,103.341563 Z M260.070792,67.2829354 L259.801557,68.4927167 L259.566817,71.9727314 L258.479612,75.3653797 L258.857338,78.9007429 L258.183501,82.3421188 L257.814636,85.8127256 L257.484151,87.5592429 L257.58154,87.6010107 L260.940945,88.5101318 L264.247351,89.5451411 L267.475495,90.813157 L270.920149,91.4047238 L273.015875,91.8596466 L270.679107,88.2054589 L266.982895,79.7038643 L261.967495,71.900547 L260.070792,67.2829354 Z M268.267184,34.4673306 L266.409392,33.4433753 L266.034818,34.9413806 L264.478757,38.0667627 L263.615748,41.378932 L263.513791,43.3470355 L264.603416,43.3440525 L268.048732,50.6406311 L266.247728,58.2289498 L270.93352,66.2847382 L274.062542,75.1052296 L279.398876,82.8235636 L282.530497,91.6424026 L284.049755,94.6253622 L284.242276,94.6612878 L287.577137,95.7251141 L291.124639,95.3852636 L294.461397,96.6260061 L297.932003,96.7349783 L300.610692,96.6707883 L300.900223,95.2469611 L296.225327,87.9228118 L292.259487,80.2497254 L288.444393,72.4995569 L284.658046,64.7325859 L280.777223,57.0106053 L277.384108,49.0385059 L273.354227,41.3899638 L268.267184,34.4673306 Z" id="Shape" fill="#FFFFFF"></path>
    </g>
</svg>