<?xml version="1.0" encoding="UTF-8"?>
<svg width="67px" height="80px" viewBox="0 0 67 80" version="1.1" xmlns="http://www.w3.org/2000/svg" xmlns:xlink="http://www.w3.org/1999/xlink">
    <!-- Generator: Sketch 64 (93537) - https://sketch.com -->
    <title>flexible</title>
    <desc>Created with Sketch.</desc>
    <g id="Page-1" stroke="none" stroke-width="1" fill="none" fill-rule="evenodd">
        <g id="Licensing" transform="translate(-792.000000, -1817.000000)">
            <g id="flexible" transform="translate(792.000000, 1817.870848)">
                <path d="M62.5893542,60.2287208 C69.9733835,48.9268419 68.1680384,18.9990653 56.5539134,11.5022215 C44.9397885,4.00537781 17.8197723,4.58801102 4.00413899,25.7340018 C-9.81149435,46.8799925 15.4132834,65.1746782 29.8474107,69.1578988 C44.2815381,73.1411194 55.205325,71.5305997 62.5893542,60.2287208 Z" id="Oval-Copy-13" fill="#FFDDD1"></path>
                <path d="M45.3252473,52.9319845 C43.0787101,54.5287402 40.312252,55.4829838 36.6141236,55.9358683 C36.0815176,56.0013459 35.5636844,55.9030146 35.1120735,55.6827492 C34.3419662,55.3071428 33.7640368,54.5726123 33.635852,53.6751853 C33.4319184,52.2512475 34.4352238,50.9534554 35.8755981,50.7775118 C40.3322677,50.2318426 42.904569,48.8811835 44.8809734,45.7782451 L46.4135208,42.6864556 C47.120662,40.3858394 46.7377242,37.1914078 45.5782976,34.3726831 C45.0188258,33.23474 44.1982639,31.9358924 43.2594369,30.549234 L43.1753028,30.4545506 L43.1753028,30.4545506 C42.9860704,30.2448988 42.8348517,30.0135555 42.7245476,29.7686308 L42.3014115,29.1586468 L42.3014115,29.1586468 L40.2385556,26.2092391 C37.2383218,21.8793224 34.2349799,17.1382938 33.7652264,12.5602476 C33.1468288,8.59715027 33.8722184,4.86696952 35.942496,1.2830313 C36.6560448,0.0450326623 38.2635063,-0.367959983 39.5315266,0.357791702 C40.7996178,1.08357798 41.2469123,2.67651163 40.5333974,3.91444092 C39.3480503,5.96508219 38.7852486,8.06115991 38.8424306,10.2852879 C38.8763163,11.6032897 39.0898144,12.8623079 39.4829249,14.0623425 L39.6387607,14.5095906 C39.9425316,15.4054715 40.3332418,16.3270344 40.8068148,17.2755271 C40.8496502,17.3634842 40.8883937,17.4527931 40.9202723,17.5421015 C42.0051966,19.5746126 43.4156778,21.6739125 44.8158218,23.6852956 L45.7440337,25.0114951 C46.3250853,25.8380813 46.8949524,26.6524999 47.438406,27.4506967 C48.7017898,28.9453512 49.7313637,30.7015939 50.4939982,32.5690167 L50.6600496,32.9316554 L50.6600496,32.9316554 C50.7217236,33.0723889 50.7683525,33.2158361 50.8012592,33.3593029 C52.2491509,37.3514325 52.4843681,41.7345973 51.1778133,45.0743714 L51.1579946,45.1150059 L51.1554768,45.1359873 L51.1554768,45.1359873 L51.1478132,45.1569761 C49.6016082,48.7343137 47.75176,51.205239 45.3252473,52.9319845 Z M25.5738276,44.8628092 L25.2669147,44.0897974 C24.859157,43.0383196 24.8637185,42.9473773 24.6937769,42.2705463 C24.5038422,41.514088 24.2064477,39.1426899 24.2511797,38.2425051 C24.2959118,37.3423203 24.4515754,36.5029353 24.7355454,35.7730794 C25.5968572,33.7892003 26.5276499,32.2885373 27.6752933,31.1517348 L28.2320228,30.7391794 C29.4890226,29.8242598 30.4517717,29.243308 31.1202701,28.9963238 C32.2662672,28.5729224 33.5851007,28.2873777 35.1320175,28.0964254 C36.5722524,27.9204752 37.5754768,26.6226826 37.3715704,25.1989364 C37.2434694,24.3016086 36.6656431,23.56716 35.8955609,23.1915659 C35.444063,22.9713556 34.9262948,22.8730538 34.3936877,22.9384996 C30.6959717,23.3914275 27.9270434,24.3443053 25.6834937,25.9423299 C23.3582438,27.5971744 21.5612495,29.9315533 20.0561067,33.2755684 L19.8456969,33.7567701 L19.8456969,33.7567701 L19.8258829,33.7973948 C18.51953,37.1366546 18.7546327,41.5194653 20.202141,45.511513 C21.6496493,49.5035607 24.6789537,53.0293428 25.2586056,53.8585472 L26.1876926,55.1851125 C27.5884748,57.196714 28.9968984,59.2949117 30.081655,61.3272359 C30.113528,61.4165364 30.1522688,61.5058478 30.1950937,61.5937864 C30.8410763,62.8844999 31.3282436,64.1212719 31.6568848,65.3175472 L32.1581466,69.4010148 C32.0764953,71.3259599 31.5142911,73.1606356 30.4752396,74.9605781 C29.7617456,76.1984926 30.2103074,77.788515 31.4769192,78.5169196 C32.7420844,79.2412714 34.3493005,78.8282426 35.06556,77.591677 C37.1357428,74.0080127 37.8609949,70.2783936 37.242825,66.3153198 C36.7528934,61.5671397 33.505564,56.4626959 30.4315318,52.1490721 L27.9603723,48.7213444 C26.3519697,46.4686943 25.9656778,45.8078091 25.5738276,44.8628092 L25.5738276,44.8628092 Z M57.8416927,17.0824626 C56.2455985,18.8566114 53.1959456,20.6812232 49.5896155,21.5070339 C48.18756,21.8281653 47.2790242,23.2401562 47.5574387,24.6631174 C47.7178139,25.4881936 48.2451514,26.1343371 48.9311479,26.46892 C49.428831,26.7116563 50.009194,26.7916558 50.5983581,26.6556779 C57.8016069,25.0029023 62.5247045,21.2114657 65.0353947,15.0604928 C65.5907388,13.7033812 64.9691602,12.1715514 63.6560428,11.6412362 C62.3401707,11.1095774 60.8238075,11.781135 60.2684982,13.1381754 L60.1055132,13.5223787 C60.0505388,13.6468916 59.993203,13.771658 59.9283597,13.9081024 L59.7813779,14.2179439 C59.6012629,14.6304137 59.3150105,15.4447868 57.8416927,17.0824626 Z M13.8522815,62.2788823 C15.1358567,60.5555582 18.6490652,58.2548308 22.5184635,57.3682356 C23.9178983,57.0458537 24.8291135,55.6352208 24.5506255,54.2122592 C24.2721925,52.7893244 22.9115895,51.8984898 21.5094409,52.2196185 C14.3058563,53.872088 9.58264876,57.6633031 7.07206924,63.8141251 C6.54120284,65.1142319 7.08496004,66.5737107 8.28749057,67.160224 L8.45162839,67.2333957 L8.45162839,67.2333957 C9.7675958,67.7651039 11.2840165,67.0936133 11.8393016,65.7366059 L12.0608549,65.2176649 C12.2132037,64.8759195 12.7291533,63.7867909 13.8522815,62.2788823 Z" id="Shape" fill="#F9865D" fill-rule="nonzero"></path>
            </g>
        </g>
    </g>
</svg>