<?xml version="1.0" encoding="UTF-8"?>
<svg width="75px" height="76px" viewBox="0 0 75 76" version="1.1" xmlns="http://www.w3.org/2000/svg" xmlns:xlink="http://www.w3.org/1999/xlink">
    <!-- Generator: Sketch 64 (93537) - https://sketch.com -->
    <title>microscope</title>
    <desc>Created with Sketch.</desc>
    <g id="Page-1" stroke="none" stroke-width="1" fill="none" fill-rule="evenodd">
        <g id="Licensing" transform="translate(-790.000000, -1604.000000)">
            <g id="microscope" transform="translate(790.000000, 1603.000000)">
                <path d="M62.5893542,66.0995689 C69.9733835,54.79769 68.1680384,24.8699134 56.5539134,17.3730696 C44.9397885,9.87622589 17.8197723,10.4588591 4.00413899,31.6048498 C-9.81149435,52.7508406 15.4132834,71.0455263 29.8474107,75.0287469 C44.2815381,79.0119675 55.205325,77.4014478 62.5893542,66.0995689 Z" id="Oval-Copy-12" fill="#E7F2C4"></path>
                <g id="Icons/Microscope" transform="translate(15.000000, 0.000000)" fill="#A1C439" fill-rule="nonzero">
                    <path d="M20.1874896,1.356904 C20.7600477,1.09119057 21.4388612,1.3375786 21.7046016,1.91009281 L21.7046016,1.91009281 L23.4439835,5.6398641 L24.7074704,5.05044249 C26.1786937,4.36443717 27.9253114,4.99973264 28.6114163,6.47087486 L28.6114163,6.47087486 L38.7793014,28.2773471 L27.5000611,33.5362677 L26.4274268,31.2341024 C25.94912,31.3331474 25.453874,31.3838758 24.9465558,31.3838758 C23.5574623,31.3838758 22.2722678,30.9780115 21.1658045,30.306477 C17.0710183,32.4294882 15.1045304,37.314269 16.7931996,41.7180485 C18.6027813,46.4382759 23.912828,48.8007921 28.6308974,47.0156199 L28.6308974,47.0156199 L53.8882678,35.1668306 C55.0575034,34.6160721 56.4489965,35.1233562 56.9973857,36.2877038 C57.5457626,37.4544632 57.0408626,38.8458797 55.8740388,39.3942387 L55.8740388,39.3942387 L31.6649359,50.750153 C33.3270119,51.994214 34.6580951,53.648963 35.4601589,55.593562 L35.4601589,55.593562 L57.7991774,55.5938088 C59.0167756,55.5938088 60.0023944,56.5793733 59.9999868,57.7969044 C59.9999868,59.0143737 59.0143636,60 57.7967654,60 L57.7967654,60 L3.45321699,60 C2.23568063,60 1.25,59.0143737 1.25,57.7969044 C1.25,56.5794351 2.23561878,55.5938088 3.45321699,55.5938088 L3.45321699,55.5938088 L14.0391752,55.5938088 C14.9306046,53.4269528 16.4574262,51.5983061 18.3900727,50.3252415 C15.6819557,48.7428468 13.5681661,46.3610299 12.4278738,43.3897419 C10.0047371,37.0751288 12.5414206,30.0722222 18.1002066,26.6443601 C17.7885713,25.8326933 17.6001367,24.9582576 17.6001367,24.0378738 C17.6001367,21.7067667 18.7065381,19.6558625 20.4000312,18.3103199 L20.4000312,18.3103199 L17.3319781,11.7297893 C16.645935,10.2586471 17.2812655,8.51212565 18.7524888,7.82605849 L18.7524888,7.82605849 L19.9144886,7.28494729 L18.1751067,3.55517599 C17.9093787,2.98264942 18.1557803,2.30387334 18.728326,2.03814755 L18.728326,2.03814755 Z M37.9462723,31.25 L38.4944353,32.6016049 C39.129872,34.1664722 38.5391862,36.0242629 37.1788281,36.7540387 L31.663634,39.7064932 C30.3010593,40.4362691 28.6834278,39.757888 28.0479911,38.1955664 L27.5,36.8439616 L37.9462723,31.25 Z M24.946562,21.1003511 C23.3279628,21.1003511 22.0089393,22.4168902 22.0089393,24.037812 C22.0089393,25.6587337 23.3279628,26.9752728 24.946562,26.9752728 C26.5651611,26.9752728 27.8841846,25.6587337 27.8841846,24.037812 C27.8841846,22.4168902 26.5651611,21.1003511 24.946562,21.1003511 Z" id="Combined-Shape"></path>
                </g>
            </g>
        </g>
    </g>
</svg>